<svg width="1440" height="1024" viewBox="0 0 1440 1024" fill="none" xmlns="http://www.w3.org/2000/svg">
<rect width="1440" height="1024" fill="black"/>
<g clip-path="url(#clip0_1_2)">
<path d="M1402.66 763.368C1402.66 770.384 1402.43 777.408 1402.7 784.407C1403.36 801.806 1399.63 818.501 1394.86 834.968C1384.95 869.207 1367.5 899.247 1343.33 924.951C1309.25 961.193 1267.88 984.208 1219.09 993.446C1211.21 994.935 1203.22 995.73 1195.21 995.822C1186.77 995.941 1178.32 995.771 1169.87 995.966C1159.16 996.16 1148.46 995.127 1137.98 992.887C1099.26 984.904 1064.68 968.353 1034.5 942.308C1010.08 921.375 990.372 895.353 976.727 866.009C963.75 838.544 956.706 808.582 956.067 778.129C955.331 743.474 960.63 709.905 970.651 676.947C974.038 665.8 977.437 654.658 980.847 643.523C981.758 640.553 982.794 637.584 983.889 634.725C988.176 623.341 995.648 620.371 1006.68 625.903C1016.64 630.899 1026.47 636.167 1036.35 641.325C1045.89 646.297 1055.57 651.022 1064.92 656.366C1070.18 659.378 1074.66 659.158 1080.01 656.553C1091.71 650.835 1103.88 645.957 1115.65 640.316C1123.28 636.66 1130.05 637.092 1137.44 641.334C1152.44 649.953 1167.86 657.843 1183.02 666.165C1184.31 666.951 1185.76 667.406 1187.26 667.492C1188.75 667.578 1190.25 667.291 1191.61 666.657C1205.9 661.083 1220.37 655.959 1234.77 650.666C1236.21 650.14 1237.65 649.614 1239.06 649.02C1246.26 645.983 1253.09 646.407 1260.04 650.267C1271.47 656.613 1283.14 662.508 1294.7 668.6C1297.08 669.864 1299.51 671.034 1301.78 672.493C1307.42 676.124 1312.64 676.124 1318.93 673.113C1334.87 665.478 1351.24 658.886 1367.41 651.76C1371.68 649.877 1375.91 648.282 1380.7 648.833C1385.71 649.41 1389.45 651.675 1390.73 656.935C1391.81 661.465 1392.86 666.021 1393.63 670.61C1396.58 688.663 1400.75 706.52 1401.9 724.811C1402.68 737.638 1402.66 750.507 1403 763.359L1402.66 763.368Z" fill="black" stroke="white" stroke-width="2"/>
<path d="M1404.98 549.458C1404.57 562.311 1404.19 575.163 1403.7 588.007C1403.59 590.722 1403.03 593.411 1402.75 596.117C1402.12 602.48 1398.31 605.805 1392.47 607.035C1389.13 607.757 1385.67 608.215 1382.25 608.732C1358.35 612.338 1334.4 615.68 1310.55 619.65C1303.31 620.863 1298.02 618.946 1292.92 613.983C1280.38 601.869 1267.59 590.119 1255.04 578.073C1252.33 575.477 1249.62 574.222 1245.85 574.595C1233.24 575.867 1220.62 576.911 1208 578.056C1204.18 578.395 1200.32 578.531 1196.55 579.184C1187.48 580.745 1180.35 577.963 1173.81 571.244C1163.28 560.453 1151.79 550.629 1141.21 539.915C1136.66 535.325 1132.13 533.773 1125.87 534.782C1112.23 536.979 1098.43 538.176 1084.84 540.619C1077.65 541.9 1072.3 540.22 1067.05 535.325C1053.22 522.379 1039.2 509.646 1025.15 496.946C1018.56 491.008 1011.72 485.315 1005.01 479.487C1003.55 478.223 1002.15 476.883 1000.78 475.525C997.303 472.056 996.985 467.941 998.983 463.734C1000.65 460.228 1002.56 456.846 1004.7 453.613C1023.46 425.092 1043.7 397.673 1066.76 372.571C1090.9 346.272 1116.91 322.128 1146.54 302.158C1166.09 288.992 1186.8 278.125 1209.27 270.948C1222.15 266.833 1235.49 264.11 1248.83 264.025C1265.21 263.924 1281.91 264.594 1296.54 274.112C1298.16 275.146 1299.88 276.035 1301.66 276.768C1323.49 285.921 1338.43 302.973 1351.32 322.094C1372.71 353.746 1384.38 389.444 1392.45 426.517C1401.14 466.893 1405.34 508.131 1404.98 549.458V549.458Z" fill="black" stroke="white" stroke-width="2"/>
<path d="M1029.98 712.611C1037.74 716.539 1045.58 720.484 1053.38 724.488C1055.78 725.71 1058.2 726.915 1060.51 728.272C1067.05 732.123 1073.47 731.92 1080.29 728.713C1092.46 723.004 1104.91 717.922 1117.07 712.162C1121.7 709.965 1125.42 709.973 1129.96 712.561C1143.33 720.196 1157.15 726.982 1170.4 734.804C1178.49 739.589 1186.01 739.623 1194.47 736.238C1209.43 730.257 1224.69 725.04 1239.69 719.11C1243.71 717.523 1246.8 717.88 1250.45 719.856C1265.67 728.085 1281.18 735.78 1296.25 744.272C1304.07 748.683 1311.36 748.963 1319.22 745.12C1323.7 742.906 1328.34 741.065 1332.91 739.029C1333.6 738.656 1334.37 738.449 1335.16 738.424C1335.94 738.399 1336.72 738.556 1337.44 738.885C1342.4 775.991 1338.04 811.783 1320.31 845.072C1298.63 885.792 1265.66 913.304 1221.5 924.816C1164.58 939.67 1113.26 926.716 1070.21 885.996C1040.48 857.848 1024.6 822.158 1021.19 780.801C1019.33 758.312 1022.86 736.603 1028.43 715.038C1028.6 714.274 1029.24 713.706 1029.98 712.611Z" fill="white"/>
<path d="M1339.84 526.299C1339.84 530.193 1340.1 534.103 1339.75 537.963C1339.5 540.814 1341.2 545.166 1337.36 546.074C1332.78 547.159 1327.59 549.238 1323.26 544.911C1321.08 542.731 1318.97 540.483 1316.88 538.201C1306.95 527.376 1296.56 516.933 1287.29 505.557C1280.42 497.133 1272.8 495.555 1262.87 497.922C1246.83 501.688 1230.62 504.708 1214.49 508C1212.99 508.305 1211.49 508.662 1209.99 508.933C1209.06 509.169 1208.08 509.135 1207.17 508.835C1206.26 508.535 1205.45 507.981 1204.83 507.236C1203.11 505.15 1201.37 503.08 1199.66 500.967C1190.44 489.532 1181.21 478.09 1171.99 466.643C1171.02 465.439 1169.96 464.31 1169.03 463.08C1165.32 458.236 1160.52 456.921 1154.72 458.067C1141.19 460.764 1127.64 463.326 1114.1 465.956C1108.83 466.983 1103.59 468.086 1098.31 469.087C1096 469.528 1093.86 469.417 1091.92 467.585C1080.09 456.421 1079.16 459.102 1090.25 446.3C1102.88 431.683 1115.32 416.931 1128.78 403.035C1148.47 382.675 1169.68 364.299 1193.75 349.521C1205.19 342.404 1217.23 336.406 1230.26 332.877C1243.06 329.382 1255.85 328.525 1268.56 333.513C1277.76 337.11 1284.85 343.481 1291.28 350.734C1299.54 360.066 1305.78 370.789 1310.89 382.123C1320.59 403.728 1327.41 426.552 1331.16 449.99C1334.31 469.502 1336.94 489.175 1339.4 508.823C1340.13 514.575 1339.52 520.488 1339.52 526.324L1339.84 526.299Z" fill="white"/>
</g>
<defs>
<clipPath id="clip0_1_2">
<rect width="449" height="732" fill="white" transform="translate(956 264)"/>
</clipPath>
</defs>
</svg>
