<svg width="494" height="346" viewBox="0 0 494 346" fill="none" xmlns="http://www.w3.org/2000/svg">
<path d="M25.9199 235.938L2.1966 75.7325H30.6059L38.5137 159.496L39.6852 175.897H41.4425L42.9069 159.496L55.2078 75.7325H72.7806L85.0816 159.496L86.546 175.897H88.3032L89.4747 159.496L97.3825 75.7325H125.792L102.069 235.938H77.4667L66.0444 159.496L64.58 144.559H63.4085L61.9441 159.496L50.5218 235.938H25.9199ZM170.923 238.281C159.11 238.281 149.787 234.229 142.953 226.126C136.217 217.926 132.848 207.919 132.848 196.106V115.564C132.848 103.068 136.217 92.9148 142.953 85.1047C149.689 77.2946 159.11 73.3895 171.216 73.3895C179.123 73.3895 185.908 75.1956 191.571 78.8078C197.331 82.42 201.724 87.3501 204.75 93.5982C207.777 99.7487 209.29 106.778 209.29 114.686V161.253H160.379V196.106C160.379 200.109 161.258 203.819 163.015 207.236C164.87 210.555 167.603 212.214 171.216 212.214C175.023 212.214 177.708 210.652 179.27 207.528C180.929 204.404 181.759 200.597 181.759 196.106V178.533H209.29V196.985C209.29 209.383 205.922 219.39 199.186 227.005C192.547 234.522 183.126 238.281 170.923 238.281ZM160.379 138.116H181.759V115.564C181.759 111.171 180.978 107.364 179.416 104.142C177.952 100.823 175.218 99.1629 171.216 99.1629C167.506 99.1629 164.772 100.871 163.015 104.288C161.258 107.608 160.379 111.366 160.379 115.564V138.116ZM275.417 238.281C271.316 238.281 267.363 237.012 263.555 234.473C259.748 231.837 255.891 228.811 251.986 225.394V235.938H222.406V20.6712H251.986V86.2762C255.696 82.7616 259.601 79.7352 263.702 77.1969C267.802 74.6586 271.707 73.3895 275.417 73.3895C280.493 73.3895 284.691 74.9515 288.011 78.0756C291.428 81.102 293.966 85.0071 295.625 89.7908C297.383 94.5745 298.261 99.5534 298.261 104.728V206.943C298.261 212.117 297.383 217.145 295.625 222.026C293.868 226.81 291.281 230.715 287.864 233.741C284.447 236.768 280.298 238.281 275.417 238.281ZM261.359 210.457C263.604 210.457 265.361 209.53 266.63 207.675C267.997 205.82 268.681 203.526 268.681 200.792V110.878C268.681 108.047 267.997 105.753 266.63 103.995C265.361 102.141 263.604 101.213 261.359 101.213C259.211 101.213 257.112 102.238 255.062 104.288C253.011 106.338 251.986 108.535 251.986 110.878V200.792C251.986 203.526 253.011 205.82 255.062 207.675C257.112 209.53 259.211 210.457 261.359 210.457ZM311.649 235.938V203.428H342.402V235.938H311.649Z" fill="black"/>
<path d="M25.9199 235.938L25.4252 236.011L25.4884 236.438H25.9199V235.938ZM2.1966 75.7325V75.2325H1.61711L1.70199 75.8058L2.1966 75.7325ZM30.6059 75.7325L31.1037 75.6855L31.0609 75.2325H30.6059V75.7325ZM38.5137 159.496L39.0125 159.461L39.0115 159.449L38.5137 159.496ZM39.6852 175.897L39.1865 175.933L39.2196 176.397H39.6852V175.897ZM41.4425 175.897V176.397H41.8998L41.9405 175.942L41.4425 175.897ZM42.9069 159.496L42.4122 159.423L42.4101 159.438L42.4089 159.452L42.9069 159.496ZM55.2078 75.7325V75.2325H54.7759L54.7131 75.6599L55.2078 75.7325ZM72.7806 75.7325L73.2753 75.6599L73.2125 75.2325H72.7806V75.7325ZM85.0816 159.496L85.5796 159.452L85.5783 159.438L85.5763 159.423L85.0816 159.496ZM86.546 175.897L86.0479 175.942L86.0886 176.397H86.546V175.897ZM88.3032 175.897V176.397H88.7688L88.802 175.933L88.3032 175.897ZM89.4747 159.496L88.9768 159.449L88.976 159.461L89.4747 159.496ZM97.3825 75.7325V75.2325H96.9275L96.8847 75.6855L97.3825 75.7325ZM125.792 75.7325L126.286 75.8058L126.371 75.2325H125.792V75.7325ZM102.069 235.938V236.438H102.5L102.563 236.011L102.069 235.938ZM77.4667 235.938L76.9722 236.012L77.0358 236.438H77.4667V235.938ZM66.0444 159.496L65.5468 159.545L65.548 159.558L65.5499 159.57L66.0444 159.496ZM64.58 144.559L65.0776 144.51L65.0334 144.059H64.58V144.559ZM63.4085 144.559V144.059H62.9551L62.9108 144.51L63.4085 144.559ZM61.9441 159.496L62.4386 159.57L62.4404 159.558L62.4417 159.545L61.9441 159.496ZM50.5218 235.938V236.438H50.9526L51.0163 236.012L50.5218 235.938ZM26.4145 235.865L2.6912 75.6593L1.70199 75.8058L25.4252 236.011L26.4145 235.865ZM2.1966 76.2325H30.6059V75.2325H2.1966V76.2325ZM30.1081 75.7795L38.0159 159.543L39.0115 159.449L31.1037 75.6855L30.1081 75.7795ZM38.015 159.532L39.1865 175.933L40.1839 175.862L39.0124 159.461L38.015 159.532ZM39.6852 176.397H41.4425V175.397H39.6852V176.397ZM41.9405 175.942L43.4049 159.541L42.4089 159.452L40.9445 175.853L41.9405 175.942ZM43.4016 159.569L55.7025 75.8052L54.7131 75.6599L42.4122 159.423L43.4016 159.569ZM55.2078 76.2325H72.7806V75.2325H55.2078V76.2325ZM72.2859 75.8052L84.5869 159.569L85.5763 159.423L73.2753 75.6599L72.2859 75.8052ZM84.5835 159.541L86.0479 175.942L87.044 175.853L85.5796 159.452L84.5835 159.541ZM86.546 176.397H88.3032V175.397H86.546V176.397ZM88.802 175.933L89.9735 159.532L88.976 159.461L87.8045 175.862L88.802 175.933ZM89.9725 159.543L97.8803 75.7795L96.8847 75.6855L88.977 159.449L89.9725 159.543ZM97.3825 76.2325H125.792V75.2325H97.3825V76.2325ZM125.297 75.6593L101.574 235.865L102.563 236.011L126.286 75.8058L125.297 75.6593ZM102.069 235.438H77.4667V236.438H102.069V235.438ZM77.9612 235.864L66.5389 159.422L65.5499 159.57L76.9722 236.012L77.9612 235.864ZM66.542 159.447L65.0776 144.51L64.0824 144.608L65.5468 159.545L66.542 159.447ZM64.58 144.059H63.4085V145.059H64.58V144.059ZM62.9108 144.51L61.4464 159.447L62.4417 159.545L63.9061 144.608L62.9108 144.51ZM61.4495 159.422L50.0272 235.864L51.0163 236.012L62.4386 159.57L61.4495 159.422ZM50.5218 235.438H25.9199V236.438H50.5218V235.438ZM142.953 226.126L142.566 226.444L142.571 226.449L142.953 226.126ZM142.953 85.1047L142.574 84.7781L142.574 84.7781L142.953 85.1047ZM191.571 78.8078L191.302 79.2293L191.305 79.2314L191.571 78.8078ZM204.75 93.5982L204.3 93.8162L204.302 93.819L204.75 93.5982ZM209.29 161.253V161.753H209.79V161.253H209.29ZM160.379 161.253V160.753H159.879V161.253H160.379ZM163.015 207.236L162.57 207.464L162.574 207.472L162.579 207.479L163.015 207.236ZM179.27 207.528L178.828 207.294L178.823 207.305L179.27 207.528ZM181.759 178.533V178.033H181.259V178.533H181.759ZM209.29 178.533H209.79V178.033H209.29V178.533ZM199.186 227.005L198.811 226.674L198.811 226.674L199.186 227.005ZM160.379 138.116H159.879V138.616H160.379V138.116ZM181.759 138.116V138.616H182.259V138.116H181.759ZM179.416 104.142L178.959 104.344L178.962 104.352L178.966 104.36L179.416 104.142ZM163.015 104.288L163.457 104.522L163.46 104.517L163.015 104.288ZM170.923 237.781C159.238 237.781 150.062 233.781 143.335 225.804L142.571 226.449C149.511 234.678 158.982 238.781 170.923 238.781V237.781ZM143.339 225.809C136.685 217.708 133.348 207.817 133.348 196.106H132.348C132.348 208.021 135.748 218.143 142.566 226.444L143.339 225.809ZM133.348 196.106V115.564H132.348V196.106H133.348ZM133.348 115.564C133.348 103.161 136.689 93.1324 143.331 85.4312L142.574 84.7781C135.744 92.6973 132.348 102.975 132.348 115.564H133.348ZM143.331 85.4312C149.956 77.7508 159.227 73.8895 171.216 73.8895V72.8895C158.992 72.8895 149.422 76.8384 142.574 84.7781L143.331 85.4312ZM171.216 73.8895C179.045 73.8895 185.733 75.6769 191.302 79.2293L191.84 78.3862C186.084 74.7143 179.202 72.8895 171.216 72.8895V73.8895ZM191.305 79.2314C196.984 82.7926 201.314 87.6507 204.3 93.8162L205.2 93.3802C202.134 87.0495 197.678 82.0473 191.836 78.3842L191.305 79.2314ZM204.302 93.819C207.29 99.8909 208.79 106.843 208.79 114.686H209.79C209.79 106.713 208.264 99.6064 205.199 93.3774L204.302 93.819ZM208.79 114.686V161.253H209.79V114.686H208.79ZM209.29 160.753H160.379V161.753H209.29V160.753ZM159.879 161.253V196.106H160.879V161.253H159.879ZM159.879 196.106C159.879 200.185 160.775 203.974 162.57 207.464L163.46 207.007C161.74 203.664 160.879 200.033 160.879 196.106H159.879ZM162.579 207.479C164.516 210.947 167.411 212.714 171.216 212.714V211.714C167.796 211.714 165.224 210.163 163.451 206.992L162.579 207.479ZM171.216 212.714C173.188 212.714 174.902 212.31 176.336 211.475C177.773 210.639 178.898 209.39 179.717 207.752L178.823 207.305C178.08 208.791 177.081 209.885 175.833 210.611C174.583 211.338 173.051 211.714 171.216 211.714V212.714ZM179.711 207.763C181.418 204.55 182.259 200.657 182.259 196.106H181.259C181.259 200.537 180.441 204.259 178.828 207.294L179.711 207.763ZM182.259 196.106V178.533H181.259V196.106H182.259ZM181.759 179.033H209.29V178.033H181.759V179.033ZM208.79 178.533V196.985H209.79V178.533H208.79ZM208.79 196.985C208.79 209.289 205.45 219.169 198.811 226.674L199.56 227.336C206.394 219.611 209.79 209.477 209.79 196.985H208.79ZM198.811 226.674C192.287 234.061 183.017 237.781 170.923 237.781V238.781C183.236 238.781 192.807 234.984 199.56 227.336L198.811 226.674ZM160.379 138.616H181.759V137.616H160.379V138.616ZM182.259 138.116V115.564H181.259V138.116H182.259ZM182.259 115.564C182.259 111.112 181.468 107.227 179.866 103.924L178.966 104.36C180.489 107.5 181.259 111.23 181.259 115.564H182.259ZM179.874 103.94C179.106 102.2 177.993 100.87 176.527 99.9803C175.065 99.0923 173.286 98.6629 171.216 98.6629V99.6629C173.148 99.6629 174.737 100.063 176.008 100.835C177.276 101.605 178.262 102.765 178.959 104.344L179.874 103.94ZM171.216 98.6629C169.281 98.6629 167.576 99.1092 166.118 100.02C164.661 100.931 163.482 102.287 162.57 104.06L163.46 104.517C164.305 102.873 165.371 101.666 166.648 100.868C167.924 100.071 169.44 99.6629 171.216 99.6629V98.6629ZM162.573 104.054C160.773 107.454 159.879 111.294 159.879 115.564H160.879C160.879 111.438 161.742 107.761 163.457 104.522L162.573 104.054ZM159.879 115.564V138.116H160.879V115.564H159.879ZM263.555 234.473L263.27 234.885L263.278 234.889L263.555 234.473ZM251.986 225.394L252.316 225.018L251.486 224.292V225.394H251.986ZM251.986 235.938V236.438H252.486V235.938H251.986ZM222.406 235.938H221.906V236.438H222.406V235.938ZM222.406 20.6712V20.1712H221.906V20.6712H222.406ZM251.986 20.6712H252.486V20.1712H251.986V20.6712ZM251.986 86.2762H251.486V87.4386L252.33 86.6392L251.986 86.2762ZM263.702 77.1969L263.438 76.7718L263.438 76.7718L263.702 77.1969ZM288.011 78.0756L287.668 78.4397L287.673 78.4449L287.679 78.4499L288.011 78.0756ZM295.625 89.7908L295.153 89.9547L295.156 89.9632L295.625 89.7908ZM295.625 222.026L296.095 222.198L296.096 222.195L295.625 222.026ZM287.864 233.741L288.196 234.115L288.196 234.115L287.864 233.741ZM266.63 207.675L266.228 207.378L266.223 207.385L266.218 207.393L266.63 207.675ZM266.63 103.995L266.218 104.278L266.226 104.29L266.236 104.302L266.63 103.995ZM255.062 104.288L254.708 103.935L254.708 103.935L255.062 104.288ZM255.062 207.675L254.726 208.046L254.726 208.046L255.062 207.675ZM275.417 237.781C271.426 237.781 267.568 236.547 263.832 234.057L263.278 234.889C267.157 237.476 271.206 238.781 275.417 238.781V237.781ZM263.84 234.062C260.05 231.438 256.208 228.424 252.316 225.018L251.657 225.77C255.575 229.198 259.446 232.237 263.271 234.884L263.84 234.062ZM251.486 225.394V235.938H252.486V225.394H251.486ZM251.986 235.438H222.406V236.438H251.986V235.438ZM222.906 235.938V20.6712H221.906V235.938H222.906ZM222.406 21.1712H251.986V20.1712H222.406V21.1712ZM251.486 20.6712V86.2762H252.486V20.6712H251.486ZM252.33 86.6392C256.017 83.1466 259.895 80.1414 263.965 77.6221L263.438 76.7718C259.307 79.329 255.376 82.3766 251.642 85.9132L252.33 86.6392ZM263.965 77.6221C268.009 75.1183 271.824 73.8895 275.417 73.8895V72.8895C271.59 72.8895 267.594 74.199 263.438 76.7718L263.965 77.6221ZM275.417 73.8895C280.382 73.8895 284.452 75.4131 287.668 78.4397L288.353 77.7115C284.93 74.4899 280.605 72.8895 275.417 72.8895V73.8895ZM287.679 78.4499C291.025 81.4134 293.518 85.243 295.153 89.9547L296.098 89.6269C294.413 84.7712 291.83 80.7906 288.342 77.7013L287.679 78.4499ZM295.156 89.9632C296.893 94.6908 297.761 99.6113 297.761 104.728H298.761C298.761 99.4955 297.873 94.4581 296.095 89.6184L295.156 89.9632ZM297.761 104.728V206.943H298.761V104.728H297.761ZM297.761 206.943C297.761 212.059 296.893 217.029 295.155 221.857L296.096 222.195C297.873 217.26 298.761 212.175 298.761 206.943H297.761ZM295.156 221.854C293.424 226.569 290.881 230.401 287.533 233.367L288.196 234.115C291.681 231.028 294.312 227.051 296.095 222.198L295.156 221.854ZM287.533 233.367C284.214 236.306 280.185 237.781 275.417 237.781V238.781C280.411 238.781 284.681 237.229 288.196 234.115L287.533 233.367ZM261.359 210.957C263.769 210.957 265.681 209.948 267.043 207.957L266.218 207.393C265.042 209.111 263.439 209.957 261.359 209.957V210.957ZM267.033 207.971C268.474 206.015 269.181 203.612 269.181 200.792H268.181C268.181 203.439 267.52 205.624 266.228 207.378L267.033 207.971ZM269.181 200.792V110.878H268.181V200.792H269.181ZM269.181 110.878C269.181 107.966 268.477 105.555 267.025 103.688L266.236 104.302C267.518 105.95 268.181 108.127 268.181 110.878H269.181ZM267.043 103.713C265.681 101.722 263.769 100.713 261.359 100.713V101.713C263.439 101.713 265.042 102.559 266.218 104.278L267.043 103.713ZM261.359 100.713C259.037 100.713 256.818 101.825 254.708 103.935L255.415 104.642C257.405 102.652 259.384 101.713 261.359 101.713V100.713ZM254.708 103.935C252.588 106.055 251.486 108.372 251.486 110.878H252.486C252.486 108.698 253.435 106.622 255.415 104.642L254.708 103.935ZM251.486 110.878V200.792H252.486V110.878H251.486ZM251.486 200.792C251.486 203.669 252.573 206.097 254.726 208.046L255.397 207.304C253.45 205.543 252.486 203.383 252.486 200.792H251.486ZM254.726 208.046C256.841 209.959 259.054 210.957 261.359 210.957V209.957C259.367 209.957 257.382 209.1 255.397 207.304L254.726 208.046ZM311.649 235.938H311.149V236.438H311.649V235.938ZM311.649 203.428V202.928H311.149V203.428H311.649ZM342.402 203.428H342.902V202.928H342.402V203.428ZM342.402 235.938V236.438H342.902V235.938H342.402ZM312.149 235.938V203.428H311.149V235.938H312.149ZM311.649 203.928H342.402V202.928H311.649V203.928ZM341.902 203.428V235.938H342.902V203.428H341.902ZM342.402 235.438H311.649V236.438H342.402V235.438Z" fill="white"/>
<path d="M80.1556 316.702L42.9698 297.316V290.798L80.1556 271.411V279.517L51.6604 294.057L80.1556 308.597V316.702ZM83.4649 329.822L105.609 262.386H112.211L90.3171 329.822H83.4649ZM115.517 316.702V308.597L144.012 294.057L115.517 279.517V271.411L152.703 290.798V297.316L115.517 316.702Z" fill="#FE3D00"/>
<path d="M80.1556 316.702L79.9245 317.146L80.6556 317.527V316.702H80.1556ZM42.9698 297.316H42.4698V297.619L42.7387 297.759L42.9698 297.316ZM42.9698 290.798L42.7387 290.354L42.4698 290.494V290.798H42.9698ZM80.1556 271.411H80.6556V270.586L79.9245 270.968L80.1556 271.411ZM80.1556 279.517L80.3829 279.962L80.6556 279.823V279.517H80.1556ZM51.6604 294.057L51.4332 293.611L50.5603 294.057L51.4332 294.502L51.6604 294.057ZM80.1556 308.597H80.6556V308.29L80.3829 308.151L80.1556 308.597ZM80.3868 316.259L43.201 296.872L42.7387 297.759L79.9245 317.146L80.3868 316.259ZM43.4698 297.316V290.798H42.4698V297.316H43.4698ZM43.201 291.241L80.3868 271.854L79.9245 270.968L42.7387 290.354L43.201 291.241ZM79.6556 271.411V279.517H80.6556V271.411H79.6556ZM79.9283 279.071L51.4332 293.611L51.8877 294.502L80.3829 279.962L79.9283 279.071ZM51.4332 294.502L79.9283 309.042L80.3829 308.151L51.8877 293.611L51.4332 294.502ZM79.6556 308.597V316.702H80.6556V308.597H79.6556ZM83.4649 329.822L82.9898 329.666L82.7744 330.322H83.4649V329.822ZM105.609 262.386V261.886H105.247L105.134 262.23L105.609 262.386ZM112.211 262.386L112.686 262.54L112.899 261.886H112.211V262.386ZM90.3171 329.822V330.322H90.6804L90.7926 329.976L90.3171 329.822ZM83.9399 329.978L106.084 262.542L105.134 262.23L82.9898 329.666L83.9399 329.978ZM105.609 262.886H112.211V261.886H105.609V262.886ZM111.735 262.232L89.8415 329.667L90.7926 329.976L112.686 262.54L111.735 262.232ZM90.3171 329.322H83.4649V330.322H90.3171V329.322ZM115.517 316.702H115.017V317.527L115.748 317.146L115.517 316.702ZM115.517 308.597L115.289 308.151L115.017 308.29V308.597H115.517ZM144.012 294.057L144.239 294.502L145.112 294.057L144.239 293.611L144.012 294.057ZM115.517 279.517H115.017V279.823L115.289 279.962L115.517 279.517ZM115.517 271.411L115.748 270.968L115.017 270.586V271.411H115.517ZM152.703 290.798H153.203V290.494L152.934 290.354L152.703 290.798ZM152.703 297.316L152.934 297.759L153.203 297.619V297.316H152.703ZM116.017 316.702V308.597H115.017V316.702H116.017ZM115.744 309.042L144.239 294.502L143.785 293.611L115.289 308.151L115.744 309.042ZM144.239 293.611L115.744 279.071L115.289 279.962L143.785 294.502L144.239 293.611ZM116.017 279.517V271.411H115.017V279.517H116.017ZM115.286 271.854L152.471 291.241L152.934 290.354L115.748 270.968L115.286 271.854ZM152.203 290.798V297.316H153.203V290.798H152.203ZM152.471 296.872L115.286 316.259L115.748 317.146L152.934 297.759L152.471 296.872Z" fill="black"/>
<path d="M491.798 172.941C491.798 175.05 491.728 177.158 491.798 179.266C491.998 184.482 490.859 189.498 489.411 194.444C486.428 204.572 481.04 213.828 473.706 221.422C463.624 232.173 450.346 239.387 435.842 241.996C433.44 242.444 431.003 242.684 428.559 242.715C425.992 242.715 423.414 242.715 420.837 242.715C417.572 242.774 414.312 242.466 411.116 241.796C399.473 239.528 388.61 234.297 379.576 226.608C372.134 220.322 366.131 212.508 361.973 203.697C358.018 195.449 355.869 186.453 355.669 177.308C355.506 167.006 357.007 156.745 360.115 146.922C361.154 143.591 362.19 140.244 363.222 136.88C363.502 135.991 363.822 135.112 364.151 134.242C365.46 130.825 367.738 129.926 371.145 131.594C374.142 133.093 377.139 134.672 380.136 136.221C383.133 137.769 385.99 139.138 388.837 140.737C389.529 141.161 390.321 141.39 391.132 141.4C391.943 141.411 392.741 141.202 393.443 140.797C397.02 139.078 400.716 137.61 404.303 135.921C405.339 135.384 406.5 135.13 407.666 135.185C408.832 135.239 409.964 135.6 410.946 136.231C415.512 138.819 420.217 141.227 424.833 143.685C425.224 143.92 425.667 144.057 426.123 144.083C426.579 144.109 427.035 144.024 427.45 143.835C431.806 142.156 436.222 140.617 440.608 139.028L441.916 138.539C442.934 138.087 444.046 137.884 445.158 137.949C446.27 138.013 447.351 138.342 448.31 138.909C451.797 140.817 455.353 142.586 458.87 144.414C459.599 144.794 460.339 145.144 461.028 145.583C461.797 146.097 462.694 146.386 463.619 146.42C464.543 146.453 465.458 146.229 466.263 145.773C471.118 143.485 476.103 141.497 481.029 139.358C482.276 138.702 483.678 138.398 485.085 138.479C485.784 138.489 486.46 138.733 487.004 139.174C487.548 139.614 487.927 140.225 488.082 140.907C488.412 142.276 488.731 143.635 488.971 145.014C489.88 150.429 491.159 155.795 491.499 161.281C491.728 165.138 491.728 169.004 491.828 172.861L491.798 172.941Z" fill="black" stroke="white"/>
<path d="M492.508 108.703C492.378 112.57 492.258 116.427 492.108 120.284C492.108 121.093 491.908 121.902 491.828 122.722C491.774 123.55 491.43 124.332 490.857 124.932C490.283 125.531 489.516 125.909 488.691 125.999C487.692 126.209 486.613 126.349 485.574 126.509C478.291 127.588 470.988 128.587 463.725 129.786C462.759 129.986 461.758 129.934 460.817 129.637C459.876 129.34 459.027 128.806 458.351 128.087C454.544 124.45 450.628 120.913 446.802 117.296C446.447 116.921 446.009 116.635 445.523 116.461C445.037 116.287 444.516 116.231 444.004 116.297C440.158 116.676 436.312 116.986 432.465 117.296C431.307 117.396 430.128 117.436 428.979 117.636C427.715 117.877 426.411 117.784 425.194 117.365C423.978 116.946 422.892 116.216 422.045 115.248C418.839 112.01 415.342 109.053 412.055 105.845C411.48 105.2 410.745 104.717 409.924 104.446C409.104 104.174 408.226 104.122 407.38 104.296C403.224 104.956 399.018 105.296 394.872 106.045C393.908 106.265 392.904 106.235 391.955 105.959C391.005 105.683 390.142 105.169 389.447 104.466C385.231 100.569 380.965 96.7524 376.679 92.9355C374.681 91.1469 372.583 89.4383 370.545 87.6897C370.096 87.31 369.666 86.9103 369.256 86.5006C368.776 86.0618 368.459 85.472 368.359 84.8288C368.259 84.1855 368.382 83.5275 368.707 82.9635C369.214 81.9238 369.795 80.922 370.445 79.9659C376.085 71.3571 382.409 63.2173 389.357 55.6254C396.607 47.6486 404.772 40.5552 413.684 34.4923C419.582 30.4747 426.02 27.3125 432.805 25.0999C436.714 23.7985 440.795 23.0847 444.913 22.9816C449.909 22.9816 454.994 23.1514 459.449 25.9792C459.946 26.2948 460.471 26.5624 461.018 26.7785C467.662 29.5263 472.207 34.6522 476.143 40.3876C482.667 49.9 486.224 60.6214 488.681 71.7524C491.334 83.8874 492.618 96.2817 492.508 108.703Z" fill="black" stroke="white"/>
<path d="M378.228 157.704L385.361 161.261C386.09 161.63 386.829 161.99 387.529 162.4C388.434 162.931 389.46 163.221 390.509 163.244C391.558 163.267 392.596 163.021 393.523 162.53C397.229 160.811 401.026 159.292 404.732 157.534C405.336 157.197 406.021 157.03 406.712 157.051C407.403 157.072 408.076 157.281 408.658 157.654C412.735 159.942 416.95 161.98 420.987 164.328C422.079 164.999 423.32 165.389 424.599 165.464C425.878 165.539 427.157 165.296 428.32 164.758C432.875 162.959 437.531 161.401 442.106 159.612C442.631 159.384 443.202 159.286 443.773 159.326C444.343 159.366 444.896 159.543 445.383 159.842C450.019 162.31 454.744 164.618 459.37 167.176C460.414 167.821 461.608 168.182 462.834 168.224C464.061 168.266 465.277 167.988 466.363 167.416C467.722 166.756 469.14 166.197 470.529 165.587C470.746 165.483 470.983 165.43 471.223 165.43C471.464 165.43 471.701 165.483 471.918 165.587C473.426 176.728 472.097 187.48 466.693 197.472C460.089 209.702 450.039 217.965 436.582 221.452C419.228 225.919 403.613 222.032 390.466 209.792C381.405 201.329 376.559 190.617 375.48 178.187C374.921 171.432 376 164.918 377.688 158.443C377.788 158.203 377.988 158.033 378.228 157.704Z" fill="white" stroke="white"/>
<path d="M472.647 101.748C472.647 102.917 472.727 104.096 472.647 105.256C472.567 106.105 473.086 107.414 471.918 107.694C470.519 108.013 468.92 108.693 467.622 107.344C466.952 106.684 466.313 106.005 465.624 105.345C462.626 102.098 459.429 98.9606 456.632 95.5433C454.544 93.0154 452.216 92.5458 449.189 93.2352C444.304 94.3743 439.359 95.2336 434.444 96.2328C433.984 96.3327 433.534 96.4326 433.075 96.5126C432.791 96.5841 432.493 96.5733 432.215 96.4813C431.937 96.3892 431.691 96.2198 431.506 95.993C430.977 95.3635 430.447 94.744 429.928 94.1145L421.496 83.8028C421.196 83.4431 420.877 83.1033 420.587 82.7336C420.099 82.0703 419.421 81.5716 418.643 81.3038C417.865 81.036 417.023 81.0119 416.231 81.2348C412.105 82.0442 407.979 82.8136 403.853 83.6029C402.245 83.9027 400.646 84.2424 399.038 84.5422C398.694 84.6482 398.329 84.6625 397.979 84.5836C397.628 84.5047 397.304 84.3354 397.04 84.0925C393.433 80.7352 393.153 81.5346 396.52 77.6977C400.376 73.3112 404.173 68.8748 408.269 64.7081C414.164 58.5346 420.817 53.1326 428.07 48.631C431.528 46.4474 435.278 44.7653 439.209 43.635C443.105 42.5858 447.001 42.326 450.878 43.8248C453.566 44.9715 455.94 46.7465 457.801 49.0007C460.269 51.8201 462.291 55.0012 463.795 58.4331C466.756 64.9182 468.836 71.7701 469.979 78.8068C470.978 84.6721 471.738 90.5773 472.487 96.4726C472.597 98.2228 472.597 99.9782 472.487 101.728L472.647 101.748Z" fill="white" stroke="white"/>
<path d="M167.739 325.805L160.773 278.763H169.115L171.437 303.359L171.781 308.175H172.297L172.727 303.359L176.339 278.763H181.499L185.111 303.359L185.541 308.175H186.057L186.401 303.359L188.723 278.763H197.065L190.099 325.805H182.875L179.521 303.359L179.091 298.973H178.747L178.317 303.359L174.963 325.805H167.739ZM210.317 326.493C206.848 326.493 204.111 325.304 202.104 322.924C200.126 320.516 199.137 317.578 199.137 314.109V290.459C199.137 286.79 200.126 283.809 202.104 281.515C204.082 279.222 206.848 278.075 210.403 278.075C212.725 278.075 214.717 278.606 216.38 279.666C218.071 280.727 219.361 282.175 220.25 284.009C221.139 285.815 221.583 287.879 221.583 290.201V303.875H207.221V314.109C207.221 315.285 207.479 316.374 207.995 317.377C208.54 318.352 209.342 318.839 210.403 318.839C211.521 318.839 212.309 318.381 212.768 317.463C213.255 316.546 213.499 315.428 213.499 314.109V308.949H221.583V314.367C221.583 318.008 220.594 320.946 218.616 323.182C216.667 325.39 213.9 326.493 210.317 326.493ZM207.221 297.081H213.499V290.459C213.499 289.169 213.27 288.051 212.811 287.105C212.381 286.131 211.578 285.643 210.403 285.643C209.314 285.643 208.511 286.145 207.995 287.148C207.479 288.123 207.221 289.227 207.221 290.459V297.081ZM241 326.493C239.796 326.493 238.635 326.121 237.517 325.375C236.399 324.601 235.267 323.713 234.12 322.709V325.805H225.434V262.595H234.12V281.859C235.21 280.827 236.356 279.939 237.56 279.193C238.764 278.448 239.911 278.075 241 278.075C242.491 278.075 243.724 278.534 244.698 279.451C245.702 280.34 246.447 281.487 246.934 282.891C247.45 284.296 247.708 285.758 247.708 287.277V317.291C247.708 318.811 247.45 320.287 246.934 321.72C246.418 323.125 245.659 324.272 244.655 325.16C243.652 326.049 242.434 326.493 241 326.493ZM236.872 318.323C237.532 318.323 238.048 318.051 238.42 317.506C238.822 316.962 239.022 316.288 239.022 315.485V289.083C239.022 288.252 238.822 287.578 238.42 287.062C238.048 286.518 237.532 286.245 236.872 286.245C236.242 286.245 235.625 286.546 235.023 287.148C234.421 287.75 234.12 288.395 234.12 289.083V315.485C234.12 316.288 234.421 316.962 235.023 317.506C235.625 318.051 236.242 318.323 236.872 318.323ZM271.101 326.493C269.668 326.493 268.449 326.049 267.446 325.16C266.443 324.272 265.683 323.125 265.167 321.72C264.651 320.287 264.393 318.811 264.393 317.291V287.277C264.393 285.758 264.637 284.296 265.124 282.891C265.64 281.487 266.4 280.34 267.403 279.451C268.406 278.534 269.639 278.075 271.101 278.075C272.19 278.075 273.337 278.448 274.541 279.193C275.745 279.939 276.892 280.827 277.981 281.859V262.595H286.667V325.805H277.981V322.709C276.834 323.713 275.702 324.601 274.584 325.375C273.466 326.121 272.305 326.493 271.101 326.493ZM275.229 318.323C275.888 318.323 276.505 318.051 277.078 317.506C277.68 316.962 277.981 316.288 277.981 315.485V289.083C277.981 288.395 277.68 287.75 277.078 287.148C276.505 286.546 275.888 286.245 275.229 286.245C274.598 286.245 274.082 286.518 273.681 287.062C273.28 287.578 273.079 288.252 273.079 289.083V315.485C273.079 316.288 273.28 316.962 273.681 317.506C274.082 318.051 274.598 318.323 275.229 318.323ZM303.12 326.493C299.651 326.493 296.914 325.304 294.907 322.924C292.929 320.516 291.94 317.578 291.94 314.109V290.459C291.94 286.79 292.929 283.809 294.907 281.515C296.885 279.222 299.651 278.075 303.206 278.075C305.528 278.075 307.52 278.606 309.183 279.666C310.874 280.727 312.164 282.175 313.053 284.009C313.942 285.815 314.386 287.879 314.386 290.201V303.875H300.024V314.109C300.024 315.285 300.282 316.374 300.798 317.377C301.343 318.352 302.145 318.839 303.206 318.839C304.324 318.839 305.112 318.381 305.571 317.463C306.058 316.546 306.302 315.428 306.302 314.109V308.949H314.386V314.367C314.386 318.008 313.397 320.946 311.419 323.182C309.47 325.39 306.703 326.493 303.12 326.493ZM300.024 297.081H306.302V290.459C306.302 289.169 306.073 288.051 305.614 287.105C305.184 286.131 304.381 285.643 303.206 285.643C302.117 285.643 301.314 286.145 300.798 287.148C300.282 288.123 300.024 289.227 300.024 290.459V297.081ZM323.966 325.805L316.312 278.763H324.74L327.664 306.025L327.922 310.755H328.61L328.868 306.025L331.792 278.763H340.22L332.566 325.805H323.966ZM353.51 326.493C350.042 326.493 347.304 325.304 345.297 322.924C343.319 320.516 342.33 317.578 342.33 314.109V290.459C342.33 286.79 343.319 283.809 345.297 281.515C347.275 279.222 350.042 278.075 353.596 278.075C355.918 278.075 357.911 278.606 359.573 279.666C361.265 280.727 362.555 282.175 363.443 284.009C364.332 285.815 364.776 287.879 364.776 290.201V303.875H350.414V314.109C350.414 315.285 350.672 316.374 351.188 317.377C351.733 318.352 352.536 318.839 353.596 318.839C354.714 318.839 355.503 318.381 355.961 317.463C356.449 316.546 356.692 315.428 356.692 314.109V308.949H364.776V314.367C364.776 318.008 363.787 320.946 361.809 323.182C359.86 325.39 357.094 326.493 353.51 326.493ZM350.414 297.081H356.692V290.459C356.692 289.169 356.463 288.051 356.004 287.105C355.574 286.131 354.772 285.643 353.596 285.643C352.507 285.643 351.704 286.145 351.188 287.148C350.672 288.123 350.414 289.227 350.414 290.459V297.081ZM368.89 325.805V262.595H377.576V325.805H368.89ZM393.024 326.407C389.555 326.407 386.832 325.246 384.854 322.924C382.876 320.574 381.887 317.607 381.887 314.023V290.459C381.887 286.876 382.876 283.923 384.854 281.601C386.832 279.251 389.555 278.075 393.024 278.075C396.464 278.075 399.173 279.251 401.151 281.601C403.158 283.923 404.161 286.876 404.161 290.459V314.023C404.161 317.607 403.158 320.574 401.151 322.924C399.173 325.246 396.464 326.407 393.024 326.407ZM393.024 318.839C394.142 318.839 394.916 318.395 395.346 317.506C395.776 316.589 395.991 315.428 395.991 314.023V290.459C395.991 289.026 395.776 287.865 395.346 286.976C394.916 286.088 394.142 285.643 393.024 285.643C391.906 285.643 391.132 286.088 390.702 286.976C390.272 287.865 390.057 289.026 390.057 290.459V314.023C390.057 315.457 390.272 316.618 390.702 317.506C391.132 318.395 391.906 318.839 393.024 318.839ZM408.016 341.973V278.763H416.702V281.859C417.792 280.827 418.938 279.939 420.142 279.193C421.346 278.448 422.493 278.075 423.582 278.075C425.073 278.075 426.306 278.534 427.28 279.451C428.284 280.34 429.029 281.487 429.516 282.891C430.032 284.296 430.29 285.758 430.29 287.277V317.291C430.29 318.811 430.032 320.287 429.516 321.72C429 323.125 428.241 324.272 427.237 325.16C426.234 326.049 425.016 326.493 423.582 326.493C422.378 326.493 421.203 326.121 420.056 325.375C418.91 324.601 417.792 323.713 416.702 322.709V341.973H408.016ZM419.712 318.323C420.372 318.323 420.845 318.123 421.131 317.721C421.447 317.32 421.604 316.718 421.604 315.915V289.513C421.604 288.424 421.447 287.607 421.131 287.062C420.845 286.518 420.372 286.245 419.712 286.245C419.082 286.245 418.422 286.518 417.734 287.062C417.046 287.578 416.702 288.252 416.702 289.083V315.485C416.702 316.173 417.046 316.818 417.734 317.42C418.422 318.022 419.082 318.323 419.712 318.323ZM444.885 326.493C441.417 326.493 438.679 325.304 436.672 322.924C434.694 320.516 433.705 317.578 433.705 314.109V290.459C433.705 286.79 434.694 283.809 436.672 281.515C438.65 279.222 441.417 278.075 444.971 278.075C447.293 278.075 449.286 278.606 450.948 279.666C452.64 280.727 453.93 282.175 454.818 284.009C455.707 285.815 456.151 287.879 456.151 290.201V303.875H441.789V314.109C441.789 315.285 442.047 316.374 442.563 317.377C443.108 318.352 443.911 318.839 444.971 318.839C446.089 318.839 446.878 318.381 447.336 317.463C447.824 316.546 448.067 315.428 448.067 314.109V308.949H456.151V314.367C456.151 318.008 455.162 320.946 453.184 323.182C451.235 325.39 448.469 326.493 444.885 326.493ZM441.789 297.081H448.067V290.459C448.067 289.169 447.838 288.051 447.379 287.105C446.949 286.131 446.147 285.643 444.971 285.643C443.882 285.643 443.079 286.145 442.563 287.148C442.047 288.123 441.789 289.227 441.789 290.459V297.081ZM459.835 325.805V278.763H468.521V284.009C468.693 282.863 469.223 281.845 470.112 280.956C471 280.068 472.075 279.365 473.337 278.849C474.627 278.333 475.917 278.075 477.207 278.075V287.707C476.834 287.564 476.433 287.478 476.003 287.449C475.601 287.392 475.2 287.363 474.799 287.363C472.907 287.363 471.387 287.879 470.241 288.911C469.094 289.943 468.521 291.348 468.521 293.125V325.805H459.835Z" fill="black"/>
<path d="M167.739 325.805L167.244 325.878L167.308 326.305H167.739V325.805ZM160.773 278.763V278.263H160.194L160.278 278.836L160.773 278.763ZM169.115 278.763L169.613 278.716L169.57 278.263H169.115V278.763ZM171.437 303.359L171.936 303.324L171.935 303.312L171.437 303.359ZM171.781 308.175L171.282 308.211L171.316 308.675H171.781V308.175ZM172.297 308.175V308.675H172.754L172.795 308.22L172.297 308.175ZM172.727 303.359L172.232 303.287L172.23 303.301L172.229 303.315L172.727 303.359ZM176.339 278.763V278.263H175.907L175.844 278.691L176.339 278.763ZM181.499 278.763L181.994 278.691L181.931 278.263H181.499V278.763ZM185.111 303.359L185.609 303.315L185.608 303.301L185.606 303.287L185.111 303.359ZM185.541 308.175L185.043 308.22L185.084 308.675H185.541V308.175ZM186.057 308.175V308.675H186.523L186.556 308.211L186.057 308.175ZM186.401 303.359L185.903 303.312L185.902 303.324L186.401 303.359ZM188.723 278.763V278.263H188.268L188.225 278.716L188.723 278.763ZM197.065 278.763L197.56 278.836L197.645 278.263H197.065V278.763ZM190.099 325.805V326.305H190.53L190.594 325.878L190.099 325.805ZM182.875 325.805L182.381 325.879L182.444 326.305H182.875V325.805ZM179.521 303.359L179.023 303.408L179.025 303.421L179.027 303.433L179.521 303.359ZM179.091 298.973L179.589 298.924L179.544 298.473H179.091V298.973ZM178.747 298.973V298.473H178.294L178.249 298.924L178.747 298.973ZM178.317 303.359L178.812 303.433L178.813 303.421L178.815 303.408L178.317 303.359ZM174.963 325.805V326.305H175.394L175.458 325.879L174.963 325.805ZM168.234 325.732L161.268 278.69L160.278 278.836L167.244 325.878L168.234 325.732ZM160.773 279.263H169.115V278.263H160.773V279.263ZM168.617 278.81L170.939 303.406L171.935 303.312L169.613 278.716L168.617 278.81ZM170.938 303.395L171.282 308.211L172.28 308.14L171.936 303.324L170.938 303.395ZM171.781 308.675H172.297V307.675H171.781V308.675ZM172.795 308.22L173.225 303.404L172.229 303.315L171.799 308.131L172.795 308.22ZM173.222 303.432L176.834 278.836L175.844 278.691L172.232 303.287L173.222 303.432ZM176.339 279.263H181.499V278.263H176.339V279.263ZM181.004 278.836L184.616 303.432L185.606 303.287L181.994 278.691L181.004 278.836ZM184.613 303.404L185.043 308.22L186.039 308.131L185.609 303.315L184.613 303.404ZM185.541 308.675H186.057V307.675H185.541V308.675ZM186.556 308.211L186.9 303.395L185.902 303.324L185.558 308.14L186.556 308.211ZM186.899 303.406L189.221 278.81L188.225 278.716L185.903 303.312L186.899 303.406ZM188.723 279.263H197.065V278.263H188.723V279.263ZM196.57 278.69L189.604 325.732L190.594 325.878L197.56 278.836L196.57 278.69ZM190.099 325.305H182.875V326.305H190.099V325.305ZM183.37 325.731L180.016 303.285L179.027 303.433L182.381 325.879L183.37 325.731ZM180.019 303.31L179.589 298.924L178.593 299.022L179.023 303.408L180.019 303.31ZM179.091 298.473H178.747V299.473H179.091V298.473ZM178.249 298.924L177.819 303.31L178.815 303.408L179.245 299.022L178.249 298.924ZM177.823 303.285L174.469 325.731L175.458 325.879L178.812 303.433L177.823 303.285ZM174.963 325.305H167.739V326.305H174.963V325.305ZM202.104 322.924L201.718 323.242L201.722 323.247L202.104 322.924ZM202.104 281.515L201.726 281.189L201.726 281.189L202.104 281.515ZM216.38 279.666L216.111 280.088L216.114 280.09L216.38 279.666ZM220.25 284.009L219.8 284.227L219.802 284.23L220.25 284.009ZM221.583 303.875V304.375H222.083V303.875H221.583ZM207.221 303.875V303.375H206.721V303.875H207.221ZM207.995 317.377L207.55 317.606L207.554 317.614L207.559 317.621L207.995 317.377ZM212.768 317.463L212.326 317.229L212.321 317.24L212.768 317.463ZM213.499 308.949V308.449H212.999V308.949H213.499ZM221.583 308.949H222.083V308.449H221.583V308.949ZM218.616 323.182L218.242 322.851L218.241 322.851L218.616 323.182ZM207.221 297.081H206.721V297.581H207.221V297.081ZM213.499 297.081V297.581H213.999V297.081H213.499ZM212.811 287.105L212.354 287.307L212.357 287.315L212.361 287.323L212.811 287.105ZM207.995 287.148L208.437 287.382L208.44 287.377L207.995 287.148ZM210.317 325.993C206.977 325.993 204.386 324.855 202.486 322.602L201.722 323.247C203.835 325.752 206.72 326.993 210.317 326.993V325.993ZM202.49 322.607C200.594 320.299 199.637 317.476 199.637 314.109H198.637C198.637 317.68 199.658 320.734 201.718 323.242L202.49 322.607ZM199.637 314.109V290.459H198.637V314.109H199.637ZM199.637 290.459C199.637 286.883 200.599 284.026 202.483 281.842L201.726 281.189C199.653 283.591 198.637 286.697 198.637 290.459H199.637ZM202.483 281.842C204.349 279.678 206.966 278.575 210.403 278.575V277.575C206.731 277.575 203.815 278.766 201.726 281.189L202.483 281.842ZM210.403 278.575C212.647 278.575 214.542 279.087 216.111 280.088L216.649 279.245C214.893 278.124 212.803 277.575 210.403 277.575V278.575ZM216.114 280.09C217.725 281.1 218.951 282.475 219.8 284.227L220.7 283.791C219.771 281.874 218.418 280.354 216.646 279.243L216.114 280.09ZM219.802 284.23C220.652 285.957 221.083 287.944 221.083 290.201H222.083C222.083 287.814 221.626 285.673 220.699 283.788L219.802 284.23ZM221.083 290.201V303.875H222.083V290.201H221.083ZM221.583 303.375H207.221V304.375H221.583V303.375ZM206.721 303.875V314.109H207.721V303.875H206.721ZM206.721 314.109C206.721 315.361 206.997 316.529 207.55 317.606L208.44 317.149C207.962 316.219 207.721 315.208 207.721 314.109H206.721ZM207.559 317.621C208.186 318.744 209.15 319.339 210.403 319.339V318.339C209.535 318.339 208.894 317.96 208.432 317.133L207.559 317.621ZM210.403 319.339C211.031 319.339 211.598 319.21 212.084 318.927C212.573 318.643 212.948 318.221 213.215 317.687L212.321 317.24C212.13 317.622 211.881 317.889 211.581 318.063C211.279 318.239 210.894 318.339 210.403 318.339V319.339ZM213.21 317.698C213.744 316.691 213.999 315.488 213.999 314.109H212.999C212.999 315.368 212.767 316.4 212.327 317.229L213.21 317.698ZM213.999 314.109V308.949H212.999V314.109H213.999ZM213.499 309.449H221.583V308.449H213.499V309.449ZM221.083 308.949V314.367H222.083V308.949H221.083ZM221.083 314.367C221.083 317.914 220.122 320.725 218.242 322.851L218.991 323.514C221.066 321.167 222.083 318.102 222.083 314.367H221.083ZM218.241 322.851C216.407 324.928 213.791 325.993 210.317 325.993V326.993C214.01 326.993 216.926 325.851 218.991 323.513L218.241 322.851ZM207.221 297.581H213.499V296.581H207.221V297.581ZM213.999 297.081V290.459H212.999V297.081H213.999ZM213.999 290.459C213.999 289.11 213.759 287.915 213.261 286.887L212.361 287.323C212.78 288.188 212.999 289.228 212.999 290.459H213.999ZM213.269 286.903C213.018 286.335 212.646 285.885 212.146 285.581C211.649 285.28 211.059 285.143 210.403 285.143V286.143C210.922 286.143 211.321 286.251 211.627 286.436C211.929 286.62 212.174 286.9 212.354 287.307L213.269 286.903ZM210.403 285.143C209.779 285.143 209.211 285.288 208.719 285.595C208.228 285.903 207.842 286.353 207.55 286.92L208.44 287.377C208.665 286.94 208.938 286.638 209.249 286.443C209.56 286.249 209.938 286.143 210.403 286.143V285.143ZM207.553 286.914C206.995 287.969 206.721 289.155 206.721 290.459H207.721C207.721 289.298 207.963 288.277 208.437 287.382L207.553 286.914ZM206.721 290.459V297.081H207.721V290.459H206.721ZM237.517 325.375L237.233 325.786L237.24 325.791L237.517 325.375ZM234.12 322.709L234.45 322.333L233.62 321.607V322.709H234.12ZM234.12 325.805V326.305H234.62V325.805H234.12ZM225.434 325.805H224.934V326.305H225.434V325.805ZM225.434 262.595V262.095H224.934V262.595H225.434ZM234.12 262.595H234.62V262.095H234.12V262.595ZM234.12 281.859H233.62V283.022L234.464 282.222L234.12 281.859ZM237.56 279.193L237.297 278.768L237.297 278.768L237.56 279.193ZM244.698 279.451L244.356 279.815L244.361 279.821L244.367 279.826L244.698 279.451ZM246.934 282.891L246.462 283.055L246.465 283.064L246.934 282.891ZM246.934 321.72L247.404 321.893L247.405 321.89L246.934 321.72ZM244.655 325.16L244.987 325.535L244.987 325.535L244.655 325.16ZM238.42 317.506L238.018 317.21L238.013 317.217L238.008 317.224L238.42 317.506ZM238.42 287.062L238.008 287.345L238.016 287.357L238.026 287.369L238.42 287.062ZM235.023 287.148L234.67 286.795L234.67 286.795L235.023 287.148ZM235.023 317.506L234.688 317.877L234.688 317.877L235.023 317.506ZM241 325.993C239.906 325.993 238.84 325.656 237.795 324.959L237.24 325.791C238.43 326.585 239.686 326.993 241 326.993V325.993ZM237.802 324.964C236.701 324.202 235.584 323.325 234.45 322.333L233.791 323.086C234.95 324.1 236.097 325 237.233 325.786L237.802 324.964ZM233.62 322.709V325.805H234.62V322.709H233.62ZM234.12 325.305H225.434V326.305H234.12V325.305ZM225.934 325.805V262.595H224.934V325.805H225.934ZM225.434 263.095H234.12V262.095H225.434V263.095ZM233.62 262.595V281.859H234.62V262.595H233.62ZM234.464 282.222C235.53 281.212 236.65 280.345 237.823 279.618L237.297 278.768C236.063 279.532 234.889 280.442 233.776 281.496L234.464 282.222ZM237.823 279.618C238.972 278.908 240.028 278.575 241 278.575V277.575C239.794 277.575 238.557 277.988 237.297 278.768L237.823 279.618ZM241 278.575C242.379 278.575 243.485 278.995 244.356 279.815L245.041 279.087C243.963 278.072 242.603 277.575 241 277.575V278.575ZM244.367 279.826C245.299 280.651 246 281.722 246.462 283.055L247.407 282.727C246.894 281.251 246.104 280.029 245.03 279.077L244.367 279.826ZM246.465 283.064C246.96 284.412 247.208 285.816 247.208 287.277H248.208C248.208 285.7 247.94 284.18 247.404 282.719L246.465 283.064ZM247.208 287.277V317.291H248.208V287.277H247.208ZM247.208 317.291C247.208 318.753 246.96 320.172 246.464 321.551L247.405 321.89C247.94 320.402 248.208 318.868 248.208 317.291H247.208ZM246.465 321.548C245.974 322.884 245.258 323.958 244.324 324.786L244.987 325.535C246.059 324.585 246.863 323.366 247.404 321.893L246.465 321.548ZM244.324 324.786C243.419 325.588 242.321 325.993 241 325.993V326.993C242.547 326.993 243.885 326.51 244.987 325.535L244.324 324.786ZM236.872 318.823C237.697 318.823 238.367 318.469 238.833 317.789L238.008 317.224C237.728 317.633 237.366 317.823 236.872 317.823V318.823ZM238.823 317.803C239.299 317.157 239.522 316.374 239.522 315.485H238.522C238.522 316.202 238.345 316.766 238.018 317.21L238.823 317.803ZM239.522 315.485V289.083H238.522V315.485H239.522ZM239.522 289.083C239.522 288.171 239.301 287.38 238.815 286.755L238.026 287.369C238.342 287.776 238.522 288.332 238.522 289.083H239.522ZM238.833 286.78C238.367 286.099 237.697 285.745 236.872 285.745V286.745C237.366 286.745 237.728 286.936 238.008 287.345L238.833 286.78ZM236.872 285.745C236.068 285.745 235.332 286.133 234.67 286.795L235.377 287.502C235.919 286.96 236.415 286.745 236.872 286.745V285.745ZM234.67 286.795C233.998 287.467 233.62 288.233 233.62 289.083H234.62C234.62 288.558 234.845 288.034 235.377 287.502L234.67 286.795ZM233.62 289.083V315.485H234.62V289.083H233.62ZM233.62 315.485C233.62 316.431 233.982 317.239 234.688 317.877L235.359 317.135C234.86 316.684 234.62 316.145 234.62 315.485H233.62ZM234.688 317.877C235.355 318.48 236.085 318.823 236.872 318.823V317.823C236.398 317.823 235.896 317.622 235.359 317.135L234.688 317.877ZM267.446 325.16L267.114 325.535L267.114 325.535L267.446 325.16ZM265.167 321.72L264.697 321.89L264.698 321.893L265.167 321.72ZM265.124 282.891L264.655 282.719L264.652 282.727L265.124 282.891ZM267.403 279.451L267.735 279.826L267.74 279.82L267.403 279.451ZM274.541 279.193L274.804 278.768L274.804 278.768L274.541 279.193ZM277.981 281.859L277.637 282.222L278.481 283.022V281.859H277.981ZM277.981 262.595V262.095H277.481V262.595H277.981ZM286.667 262.595H287.167V262.095H286.667V262.595ZM286.667 325.805V326.305H287.167V325.805H286.667ZM277.981 325.805H277.481V326.305H277.981V325.805ZM277.981 322.709H278.481V321.607L277.652 322.333L277.981 322.709ZM274.584 325.375L274.861 325.791L274.869 325.786L274.584 325.375ZM277.078 317.506L276.742 317.135L276.734 317.144L277.078 317.506ZM277.078 287.148L276.716 287.493L276.724 287.502L277.078 287.148ZM273.681 287.062L274.076 287.369L274.084 287.359L273.681 287.062ZM273.681 317.506L273.278 317.803L273.278 317.803L273.681 317.506ZM271.101 325.993C269.781 325.993 268.683 325.588 267.778 324.786L267.114 325.535C268.216 326.51 269.555 326.993 271.101 326.993V325.993ZM267.778 324.786C266.843 323.958 266.127 322.884 265.636 321.548L264.698 321.893C265.239 323.366 266.042 324.585 267.114 325.535L267.778 324.786ZM265.637 321.551C265.141 320.172 264.893 318.753 264.893 317.291H263.893C263.893 318.868 264.161 320.402 264.697 321.89L265.637 321.551ZM264.893 317.291V287.277H263.893V317.291H264.893ZM264.893 287.277C264.893 285.812 265.128 284.406 265.596 283.055L264.652 282.727C264.146 284.186 263.893 285.703 263.893 287.277H264.893ZM265.593 283.064C266.084 281.727 266.8 280.653 267.735 279.826L267.071 279.077C265.999 280.027 265.196 281.246 264.655 282.719L265.593 283.064ZM267.74 279.82C268.644 278.994 269.754 278.575 271.101 278.575V277.575C269.524 277.575 268.168 278.074 267.066 279.082L267.74 279.82ZM271.101 278.575C272.073 278.575 273.13 278.908 274.278 279.618L274.804 278.768C273.544 277.988 272.307 277.575 271.101 277.575V278.575ZM274.278 279.618C275.451 280.345 276.571 281.212 277.637 282.222L278.325 281.496C277.212 280.442 276.039 279.532 274.804 278.768L274.278 279.618ZM278.481 281.859V262.595H277.481V281.859H278.481ZM277.981 263.095H286.667V262.095H277.981V263.095ZM286.167 262.595V325.805H287.167V262.595H286.167ZM286.667 325.305H277.981V326.305H286.667V325.305ZM278.481 325.805V322.709H277.481V325.805H278.481ZM277.652 322.333C276.518 323.325 275.4 324.202 274.299 324.964L274.869 325.786C276.004 325 277.151 324.1 278.31 323.086L277.652 322.333ZM274.307 324.959C273.261 325.656 272.195 325.993 271.101 325.993V326.993C272.415 326.993 273.671 326.585 274.861 325.791L274.307 324.959ZM275.229 318.823C276.041 318.823 276.776 318.483 277.422 317.869L276.734 317.144C276.234 317.619 275.735 317.823 275.229 317.823V318.823ZM277.413 317.877C278.119 317.239 278.481 316.431 278.481 315.485H277.481C277.481 316.145 277.241 316.684 276.743 317.135L277.413 317.877ZM278.481 315.485V289.083H277.481V315.485H278.481ZM278.481 289.083C278.481 288.233 278.104 287.467 277.432 286.795L276.724 287.502C277.256 288.034 277.481 288.558 277.481 289.083H278.481ZM277.44 286.803C276.798 286.13 276.059 285.745 275.229 285.745V286.745C275.718 286.745 276.211 286.963 276.716 287.493L277.44 286.803ZM275.229 285.745C274.426 285.745 273.766 286.104 273.278 286.766L274.084 287.359C274.399 286.931 274.77 286.745 275.229 286.745V285.745ZM273.286 286.755C272.8 287.38 272.579 288.171 272.579 289.083H273.579C273.579 288.332 273.759 287.776 274.076 287.369L273.286 286.755ZM272.579 289.083V315.485H273.579V289.083H272.579ZM272.579 315.485C272.579 316.374 272.803 317.157 273.278 317.803L274.084 317.21C273.757 316.766 273.579 316.202 273.579 315.485H272.579ZM273.278 317.803C273.766 318.465 274.426 318.823 275.229 318.823V317.823C274.77 317.823 274.399 317.637 274.084 317.21L273.278 317.803ZM294.907 322.924L294.52 323.242L294.525 323.247L294.907 322.924ZM294.907 281.515L294.528 281.189L294.528 281.189L294.907 281.515ZM309.183 279.666L308.914 280.088L308.917 280.09L309.183 279.666ZM313.053 284.009L312.603 284.227L312.604 284.23L313.053 284.009ZM314.386 303.875V304.375H314.886V303.875H314.386ZM300.024 303.875V303.375H299.524V303.875H300.024ZM300.798 317.377L300.353 317.606L300.357 317.614L300.361 317.621L300.798 317.377ZM305.571 317.463L305.129 317.229L305.124 317.24L305.571 317.463ZM306.302 308.949V308.449H305.802V308.949H306.302ZM314.386 308.949H314.886V308.449H314.386V308.949ZM311.419 323.182L311.044 322.851L311.044 322.851L311.419 323.182ZM300.024 297.081H299.524V297.581H300.024V297.081ZM306.302 297.081V297.581H306.802V297.081H306.302ZM305.614 287.105L305.156 287.307L305.16 287.315L305.164 287.323L305.614 287.105ZM300.798 287.148L301.24 287.382L301.243 287.377L300.798 287.148ZM303.12 325.993C299.78 325.993 297.189 324.855 295.289 322.602L294.525 323.247C296.638 325.752 299.523 326.993 303.12 326.993V325.993ZM295.293 322.607C293.397 320.299 292.44 317.476 292.44 314.109H291.44C291.44 317.68 292.461 320.734 294.521 323.242L295.293 322.607ZM292.44 314.109V290.459H291.44V314.109H292.44ZM292.44 290.459C292.44 286.883 293.402 284.026 295.285 281.842L294.528 281.189C292.456 283.591 291.44 286.697 291.44 290.459H292.44ZM295.285 281.842C297.152 279.678 299.769 278.575 303.206 278.575V277.575C299.534 277.575 296.618 278.766 294.528 281.189L295.285 281.842ZM303.206 278.575C305.45 278.575 307.345 279.087 308.914 280.088L309.452 279.245C307.695 278.124 305.606 277.575 303.206 277.575V278.575ZM308.917 280.09C310.527 281.1 311.754 282.475 312.603 284.227L313.503 283.791C312.574 281.874 311.221 280.354 309.449 279.243L308.917 280.09ZM312.604 284.23C313.454 285.957 313.886 287.944 313.886 290.201H314.886C314.886 287.814 314.429 285.673 313.501 283.788L312.604 284.23ZM313.886 290.201V303.875H314.886V290.201H313.886ZM314.386 303.375H300.024V304.375H314.386V303.375ZM299.524 303.875V314.109H300.524V303.875H299.524ZM299.524 314.109C299.524 315.361 299.799 316.529 300.353 317.606L301.243 317.149C300.764 316.219 300.524 315.208 300.524 314.109H299.524ZM300.361 317.621C300.989 318.744 301.953 319.339 303.206 319.339V318.339C302.338 318.339 301.696 317.96 301.234 317.133L300.361 317.621ZM303.206 319.339C303.833 319.339 304.401 319.21 304.887 318.927C305.376 318.643 305.751 318.221 306.018 317.687L305.124 317.24C304.932 317.622 304.684 317.889 304.384 318.063C304.082 318.239 303.696 318.339 303.206 318.339V319.339ZM306.012 317.698C306.547 316.691 306.802 315.488 306.802 314.109H305.802C305.802 315.368 305.569 316.4 305.129 317.229L306.012 317.698ZM306.802 314.109V308.949H305.802V314.109H306.802ZM306.302 309.449H314.386V308.449H306.302V309.449ZM313.886 308.949V314.367H314.886V308.949H313.886ZM313.886 314.367C313.886 317.914 312.925 320.725 311.044 322.851L311.793 323.514C313.869 321.167 314.886 318.102 314.886 314.367H313.886ZM311.044 322.851C309.21 324.928 306.594 325.993 303.12 325.993V326.993C306.813 326.993 309.729 325.851 311.794 323.513L311.044 322.851ZM300.024 297.581H306.302V296.581H300.024V297.581ZM306.802 297.081V290.459H305.802V297.081H306.802ZM306.802 290.459C306.802 289.11 306.562 287.915 306.064 286.887L305.164 287.323C305.583 288.188 305.802 289.228 305.802 290.459H306.802ZM306.071 286.903C305.821 286.335 305.449 285.885 304.949 285.581C304.452 285.28 303.862 285.143 303.206 285.143V286.143C303.725 286.143 304.124 286.251 304.43 286.436C304.732 286.62 304.977 286.9 305.156 287.307L306.071 286.903ZM303.206 285.143C302.582 285.143 302.014 285.288 301.522 285.595C301.031 285.903 300.644 286.353 300.353 286.92L301.243 287.377C301.467 286.94 301.74 286.638 302.052 286.443C302.362 286.249 302.74 286.143 303.206 286.143V285.143ZM300.356 286.914C299.797 287.969 299.524 289.155 299.524 290.459H300.524C300.524 289.298 300.766 288.277 301.24 287.382L300.356 286.914ZM299.524 290.459V297.081H300.524V290.459H299.524ZM323.966 325.805L323.473 325.886L323.541 326.305H323.966V325.805ZM316.312 278.763V278.263H315.724L315.819 278.844L316.312 278.763ZM324.74 278.763L325.237 278.71L325.189 278.263H324.74V278.763ZM327.664 306.025L328.163 305.998L328.163 305.985L328.161 305.972L327.664 306.025ZM327.922 310.755L327.423 310.782L327.449 311.255H327.922V310.755ZM328.61 310.755V311.255H329.084L329.109 310.782L328.61 310.755ZM328.868 306.025L328.371 305.972L328.37 305.985L328.369 305.998L328.868 306.025ZM331.792 278.763V278.263H331.343L331.295 278.71L331.792 278.763ZM340.22 278.763L340.714 278.844L340.808 278.263H340.22V278.763ZM332.566 325.805V326.305H332.991L333.06 325.886L332.566 325.805ZM324.46 325.725L316.806 278.683L315.819 278.844L323.473 325.886L324.46 325.725ZM316.312 279.263H324.74V278.263H316.312V279.263ZM324.243 278.817L327.167 306.079L328.161 305.972L325.237 278.71L324.243 278.817ZM327.165 306.052L327.423 310.782L328.421 310.728L328.163 305.998L327.165 306.052ZM327.922 311.255H328.61V310.255H327.922V311.255ZM329.109 310.782L329.367 306.052L328.369 305.998L328.111 310.728L329.109 310.782ZM329.365 306.079L332.289 278.817L331.295 278.71L328.371 305.972L329.365 306.079ZM331.792 279.263H340.22V278.263H331.792V279.263ZM339.727 278.683L332.073 325.725L333.06 325.886L340.714 278.844L339.727 278.683ZM332.566 325.305H323.966V326.305H332.566V325.305ZM345.297 322.924L344.911 323.242L344.915 323.247L345.297 322.924ZM345.297 281.515L344.919 281.189L344.919 281.189L345.297 281.515ZM359.573 279.666L359.305 280.088L359.308 280.09L359.573 279.666ZM363.443 284.009L362.993 284.227L362.995 284.23L363.443 284.009ZM364.776 303.875V304.375H365.276V303.875H364.776ZM350.414 303.875V303.375H349.914V303.875H350.414ZM351.188 317.377L350.744 317.606L350.748 317.614L350.752 317.621L351.188 317.377ZM355.961 317.463L355.52 317.229L355.514 317.24L355.961 317.463ZM356.692 308.949V308.449H356.192V308.949H356.692ZM364.776 308.949H365.276V308.449H364.776V308.949ZM361.809 323.182L361.435 322.851L361.435 322.851L361.809 323.182ZM350.414 297.081H349.914V297.581H350.414V297.081ZM356.692 297.081V297.581H357.192V297.081H356.692ZM356.004 287.105L355.547 287.307L355.551 287.315L355.555 287.323L356.004 287.105ZM351.188 287.148L351.63 287.382L351.633 287.377L351.188 287.148ZM353.51 325.993C350.17 325.993 347.58 324.855 345.68 322.602L344.915 323.247C347.029 325.752 349.913 326.993 353.51 326.993V325.993ZM345.684 322.607C343.788 320.299 342.83 317.476 342.83 314.109H341.83C341.83 317.68 342.851 320.734 344.911 323.242L345.684 322.607ZM342.83 314.109V290.459H341.83V314.109H342.83ZM342.83 290.459C342.83 286.883 343.792 284.026 345.676 281.842L344.919 281.189C342.847 283.591 341.83 286.697 341.83 290.459H342.83ZM345.676 281.842C347.542 279.678 350.159 278.575 353.596 278.575V277.575C349.924 277.575 347.009 278.766 344.919 281.189L345.676 281.842ZM353.596 278.575C355.84 278.575 357.736 279.087 359.305 280.088L359.842 279.245C358.086 278.124 355.997 277.575 353.596 277.575V278.575ZM359.308 280.09C360.918 281.1 362.145 282.475 362.993 284.227L363.893 283.791C362.965 281.874 361.612 280.354 359.839 279.243L359.308 280.09ZM362.995 284.23C363.845 285.957 364.276 287.944 364.276 290.201H365.276C365.276 287.814 364.819 285.673 363.892 283.788L362.995 284.23ZM364.276 290.201V303.875H365.276V290.201H364.276ZM364.776 303.375H350.414V304.375H364.776V303.375ZM349.914 303.875V314.109H350.914V303.875H349.914ZM349.914 314.109C349.914 315.361 350.19 316.529 350.744 317.606L351.633 317.149C351.155 316.219 350.914 315.208 350.914 314.109H349.914ZM350.752 317.621C351.379 318.744 352.343 319.339 353.596 319.339V318.339C352.728 318.339 352.087 317.96 351.625 317.133L350.752 317.621ZM353.596 319.339C354.224 319.339 354.792 319.21 355.278 318.927C355.766 318.643 356.141 318.221 356.409 317.687L355.514 317.24C355.323 317.622 355.075 317.889 354.775 318.063C354.472 318.239 354.087 318.339 353.596 318.339V319.339ZM356.403 317.698C356.938 316.691 357.192 315.488 357.192 314.109H356.192C356.192 315.368 355.96 316.4 355.52 317.229L356.403 317.698ZM357.192 314.109V308.949H356.192V314.109H357.192ZM356.692 309.449H364.776V308.449H356.692V309.449ZM364.276 308.949V314.367H365.276V308.949H364.276ZM364.276 314.367C364.276 317.914 363.315 320.725 361.435 322.851L362.184 323.514C364.26 321.167 365.276 318.102 365.276 314.367H364.276ZM361.435 322.851C359.601 324.928 356.984 325.993 353.51 325.993V326.993C357.203 326.993 360.12 325.851 362.184 323.513L361.435 322.851ZM350.414 297.581H356.692V296.581H350.414V297.581ZM357.192 297.081V290.459H356.192V297.081H357.192ZM357.192 290.459C357.192 289.11 356.953 287.915 356.454 286.887L355.555 287.323C355.974 288.188 356.192 289.228 356.192 290.459H357.192ZM356.462 286.903C356.211 286.335 355.84 285.885 355.339 285.581C354.842 285.28 354.253 285.143 353.596 285.143V286.143C354.115 286.143 354.515 286.251 354.821 286.436C355.123 286.62 355.368 286.9 355.547 287.307L356.462 286.903ZM353.596 285.143C352.973 285.143 352.405 285.288 351.912 285.595C351.421 285.903 351.035 286.353 350.744 286.92L351.633 287.377C351.858 286.94 352.131 286.638 352.442 286.443C352.753 286.249 353.131 286.143 353.596 286.143V285.143ZM350.747 286.914C350.188 287.969 349.914 289.155 349.914 290.459H350.914C350.914 289.298 351.157 288.277 351.63 287.382L350.747 286.914ZM349.914 290.459V297.081H350.914V290.459H349.914ZM368.89 325.805H368.39V326.305H368.89V325.805ZM368.89 262.595V262.095H368.39V262.595H368.89ZM377.576 262.595H378.076V262.095H377.576V262.595ZM377.576 325.805V326.305H378.076V325.805H377.576ZM369.39 325.805V262.595H368.39V325.805H369.39ZM368.89 263.095H377.576V262.095H368.89V263.095ZM377.076 262.595V325.805H378.076V262.595H377.076ZM377.576 325.305H368.89V326.305H377.576V325.305ZM384.854 322.924L384.472 323.246L384.474 323.248L384.854 322.924ZM384.854 281.601L385.235 281.925L385.237 281.923L384.854 281.601ZM401.151 281.601L400.769 281.923L400.773 281.928L401.151 281.601ZM401.151 322.924L400.771 322.6L400.771 322.6L401.151 322.924ZM395.346 317.506L395.796 317.724L395.799 317.718L395.346 317.506ZM395.346 286.976L394.896 287.194L394.896 287.194L395.346 286.976ZM390.702 286.976L390.252 286.758L390.252 286.758L390.702 286.976ZM390.702 317.506L390.252 317.724L390.252 317.724L390.702 317.506ZM393.024 325.907C389.68 325.907 387.104 324.794 385.235 322.6L384.474 323.248C386.56 325.698 389.431 326.907 393.024 326.907V325.907ZM385.237 322.602C383.347 320.356 382.387 317.509 382.387 314.023H381.387C381.387 317.704 382.405 320.791 384.472 323.246L385.237 322.602ZM382.387 314.023V290.459H381.387V314.023H382.387ZM382.387 290.459C382.387 286.973 383.347 284.142 385.235 281.925L384.474 281.277C382.405 283.705 381.387 286.779 381.387 290.459H382.387ZM385.237 281.923C387.107 279.701 389.682 278.575 393.024 278.575V277.575C389.429 277.575 386.558 278.8 384.472 281.279L385.237 281.923ZM393.024 278.575C396.336 278.575 398.898 279.7 400.769 281.923L401.534 281.279C399.449 278.801 396.592 277.575 393.024 277.575V278.575ZM400.773 281.928C402.688 284.144 403.661 286.975 403.661 290.459H404.661C404.661 286.777 403.627 283.702 401.529 281.274L400.773 281.928ZM403.661 290.459V314.023H404.661V290.459H403.661ZM403.661 314.023C403.661 317.508 402.688 320.354 400.771 322.6L401.531 323.249C403.627 320.794 404.661 317.706 404.661 314.023H403.661ZM400.771 322.6C398.9 324.795 396.339 325.907 393.024 325.907V326.907C396.59 326.907 399.446 325.697 401.532 323.248L400.771 322.6ZM393.024 319.339C393.649 319.339 394.212 319.215 394.692 318.94C395.175 318.662 395.542 318.249 395.796 317.724L394.896 317.288C394.72 317.652 394.485 317.906 394.194 318.072C393.9 318.241 393.518 318.339 393.024 318.339V319.339ZM395.799 317.718C396.27 316.714 396.491 315.475 396.491 314.023H395.491C395.491 315.381 395.283 316.464 394.893 317.294L395.799 317.718ZM396.491 314.023V290.459H395.491V314.023H396.491ZM396.491 290.459C396.491 288.982 396.27 287.739 395.796 286.758L394.896 287.194C395.282 287.991 395.491 289.07 395.491 290.459H396.491ZM395.796 286.758C395.542 286.234 395.175 285.82 394.692 285.543C394.212 285.268 393.649 285.143 393.024 285.143V286.143C393.518 286.143 393.9 286.241 394.194 286.41C394.485 286.577 394.72 286.83 394.896 287.194L395.796 286.758ZM393.024 285.143C392.4 285.143 391.836 285.268 391.356 285.543C390.873 285.82 390.506 286.234 390.252 286.758L391.152 287.194C391.328 286.83 391.563 286.577 391.854 286.41C392.148 286.241 392.531 286.143 393.024 286.143V285.143ZM390.252 286.758C389.778 287.739 389.557 288.982 389.557 290.459H390.557C390.557 289.07 390.766 287.991 391.152 287.194L390.252 286.758ZM389.557 290.459V314.023H390.557V290.459H389.557ZM389.557 314.023C389.557 315.5 389.778 316.744 390.252 317.724L391.152 317.288C390.766 316.491 390.557 315.413 390.557 314.023H389.557ZM390.252 317.724C390.506 318.249 390.873 318.662 391.356 318.94C391.836 319.215 392.4 319.339 393.024 319.339V318.339C392.531 318.339 392.148 318.241 391.854 318.072C391.563 317.906 391.328 317.652 391.152 317.288L390.252 317.724ZM408.016 341.973H407.516V342.473H408.016V341.973ZM408.016 278.763V278.263H407.516V278.763H408.016ZM416.702 278.763H417.202V278.263H416.702V278.763ZM416.702 281.859H416.202V283.022L417.046 282.222L416.702 281.859ZM420.142 279.193L419.879 278.768L419.879 278.768L420.142 279.193ZM427.28 279.451L426.938 279.815L426.943 279.821L426.949 279.826L427.28 279.451ZM429.516 282.891L429.044 283.055L429.047 283.064L429.516 282.891ZM429.516 321.72L429.986 321.893L429.987 321.89L429.516 321.72ZM427.237 325.16L427.569 325.535L427.569 325.535L427.237 325.16ZM420.056 325.375L419.777 325.79L419.784 325.794L420.056 325.375ZM416.702 322.709L417.041 322.341L416.202 321.569V322.709H416.702ZM416.702 341.973V342.473H417.202V341.973H416.702ZM421.131 317.721L420.738 317.412L420.731 317.421L420.724 317.431L421.131 317.721ZM421.131 287.062L420.689 287.295L420.694 287.304L420.699 287.313L421.131 287.062ZM417.734 287.062L418.034 287.462L418.045 287.454L417.734 287.062ZM417.734 317.42L418.064 317.044L418.064 317.044L417.734 317.42ZM408.516 341.973V278.763H407.516V341.973H408.516ZM408.016 279.263H416.702V278.263H408.016V279.263ZM416.202 278.763V281.859H417.202V278.763H416.202ZM417.046 282.222C418.112 281.212 419.232 280.345 420.406 279.618L419.879 278.768C418.645 279.532 417.471 280.442 416.358 281.496L417.046 282.222ZM420.406 279.618C421.554 278.908 422.61 278.575 423.582 278.575V277.575C422.376 277.575 421.139 277.988 419.879 278.768L420.406 279.618ZM423.582 278.575C424.961 278.575 426.067 278.995 426.938 279.815L427.623 279.087C426.545 278.072 425.185 277.575 423.582 277.575V278.575ZM426.949 279.826C427.881 280.651 428.582 281.722 429.044 283.055L429.989 282.727C429.476 281.251 428.686 280.029 427.612 279.077L426.949 279.826ZM429.047 283.064C429.542 284.412 429.79 285.816 429.79 287.277H430.79C430.79 285.7 430.522 284.18 429.986 282.719L429.047 283.064ZM429.79 287.277V317.291H430.79V287.277H429.79ZM429.79 317.291C429.79 318.753 429.542 320.172 429.046 321.551L429.987 321.89C430.522 320.402 430.79 318.868 430.79 317.291H429.79ZM429.047 321.548C428.556 322.884 427.84 323.958 426.906 324.786L427.569 325.535C428.641 324.585 429.445 323.366 429.986 321.893L429.047 321.548ZM426.906 324.786C426.001 325.588 424.903 325.993 423.582 325.993V326.993C425.129 326.993 426.467 326.51 427.569 325.535L426.906 324.786ZM423.582 325.993C422.488 325.993 421.406 325.656 420.329 324.956L419.784 325.794C421 326.585 422.269 326.993 423.582 326.993V325.993ZM420.336 324.961C419.212 324.202 418.113 323.329 417.041 322.341L416.364 323.077C417.47 324.096 418.608 325.001 419.777 325.79L420.336 324.961ZM416.202 322.709V341.973H417.202V322.709H416.202ZM416.702 341.473H408.016V342.473H416.702V341.473ZM419.712 318.823C420.474 318.823 421.128 318.586 421.538 318.012L420.724 317.431C420.562 317.659 420.27 317.823 419.712 317.823V318.823ZM421.525 318.03C421.939 317.503 422.104 316.77 422.104 315.915H421.104C421.104 316.666 420.955 317.137 420.738 317.412L421.525 318.03ZM422.104 315.915V289.513H421.104V315.915H422.104ZM422.104 289.513C422.104 288.392 421.945 287.47 421.564 286.812L420.699 287.313C420.948 287.744 421.104 288.456 421.104 289.513H422.104ZM421.574 286.829C421.392 286.484 421.14 286.205 420.811 286.016C420.484 285.828 420.111 285.745 419.712 285.745V286.745C419.973 286.745 420.166 286.799 420.312 286.883C420.456 286.966 420.584 287.096 420.689 287.295L421.574 286.829ZM419.712 285.745C418.932 285.745 418.166 286.083 417.424 286.67L418.045 287.454C418.678 286.953 419.231 286.745 419.712 286.745V285.745ZM417.434 286.662C416.626 287.269 416.202 288.088 416.202 289.083H417.202C417.202 288.416 417.467 287.888 418.034 287.462L417.434 286.662ZM416.202 289.083V315.485H417.202V289.083H416.202ZM416.202 315.485C416.202 316.361 416.646 317.133 417.405 317.797L418.064 317.044C417.446 316.504 417.202 315.986 417.202 315.485H416.202ZM417.405 317.797C418.144 318.443 418.916 318.823 419.712 318.823V317.823C419.247 317.823 418.701 317.601 418.064 317.044L417.405 317.797ZM436.672 322.924L436.286 323.242L436.29 323.247L436.672 322.924ZM436.672 281.515L436.294 281.189L436.294 281.189L436.672 281.515ZM450.948 279.666L450.68 280.088L450.683 280.09L450.948 279.666ZM454.818 284.009L454.368 284.227L454.37 284.23L454.818 284.009ZM456.151 303.875V304.375H456.651V303.875H456.151ZM441.789 303.875V303.375H441.289V303.875H441.789ZM442.563 317.377L442.119 317.606L442.123 317.614L442.127 317.621L442.563 317.377ZM447.336 317.463L446.895 317.229L446.889 317.24L447.336 317.463ZM448.067 308.949V308.449H447.567V308.949H448.067ZM456.151 308.949H456.651V308.449H456.151V308.949ZM453.184 323.182L452.81 322.851L452.81 322.851L453.184 323.182ZM441.789 297.081H441.289V297.581H441.789V297.081ZM448.067 297.081V297.581H448.567V297.081H448.067ZM447.379 287.105L446.922 287.307L446.926 287.315L446.93 287.323L447.379 287.105ZM442.563 287.148L443.005 287.382L443.008 287.377L442.563 287.148ZM444.885 325.993C441.545 325.993 438.955 324.855 437.055 322.602L436.29 323.247C438.404 325.752 441.288 326.993 444.885 326.993V325.993ZM437.059 322.607C435.163 320.299 434.205 317.476 434.205 314.109H433.205C433.205 317.68 434.226 320.734 436.286 323.242L437.059 322.607ZM434.205 314.109V290.459H433.205V314.109H434.205ZM434.205 290.459C434.205 286.883 435.167 284.026 437.051 281.842L436.294 281.189C434.222 283.591 433.205 286.697 433.205 290.459H434.205ZM437.051 281.842C438.917 279.678 441.534 278.575 444.971 278.575V277.575C441.299 277.575 438.384 278.766 436.294 281.189L437.051 281.842ZM444.971 278.575C447.215 278.575 449.111 279.087 450.68 280.088L451.217 279.245C449.461 278.124 447.372 277.575 444.971 277.575V278.575ZM450.683 280.09C452.293 281.1 453.52 282.475 454.368 284.227L455.268 283.791C454.34 281.874 452.987 280.354 451.214 279.243L450.683 280.09ZM454.37 284.23C455.22 285.957 455.651 287.944 455.651 290.201H456.651C456.651 287.814 456.194 285.673 455.267 283.788L454.37 284.23ZM455.651 290.201V303.875H456.651V290.201H455.651ZM456.151 303.375H441.789V304.375H456.151V303.375ZM441.289 303.875V314.109H442.289V303.875H441.289ZM441.289 314.109C441.289 315.361 441.565 316.529 442.119 317.606L443.008 317.149C442.53 316.219 442.289 315.208 442.289 314.109H441.289ZM442.127 317.621C442.754 318.744 443.718 319.339 444.971 319.339V318.339C444.103 318.339 443.462 317.96 443 317.133L442.127 317.621ZM444.971 319.339C445.599 319.339 446.167 319.21 446.653 318.927C447.141 318.643 447.516 318.221 447.784 317.687L446.889 317.24C446.698 317.622 446.45 317.889 446.15 318.063C445.847 318.239 445.462 318.339 444.971 318.339V319.339ZM447.778 317.698C448.313 316.691 448.567 315.488 448.567 314.109H447.567C447.567 315.368 447.335 316.4 446.895 317.229L447.778 317.698ZM448.567 314.109V308.949H447.567V314.109H448.567ZM448.067 309.449H456.151V308.449H448.067V309.449ZM455.651 308.949V314.367H456.651V308.949H455.651ZM455.651 314.367C455.651 317.914 454.69 320.725 452.81 322.851L453.559 323.514C455.635 321.167 456.651 318.102 456.651 314.367H455.651ZM452.81 322.851C450.976 324.928 448.359 325.993 444.885 325.993V326.993C448.578 326.993 451.495 325.851 453.559 323.513L452.81 322.851ZM441.789 297.581H448.067V296.581H441.789V297.581ZM448.567 297.081V290.459H447.567V297.081H448.567ZM448.567 290.459C448.567 289.11 448.328 287.915 447.829 286.887L446.93 287.323C447.349 288.188 447.567 289.228 447.567 290.459H448.567ZM447.837 286.903C447.586 286.335 447.215 285.885 446.714 285.581C446.217 285.28 445.628 285.143 444.971 285.143V286.143C445.49 286.143 445.89 286.251 446.196 286.436C446.498 286.62 446.743 286.9 446.922 287.307L447.837 286.903ZM444.971 285.143C444.348 285.143 443.78 285.288 443.287 285.595C442.796 285.903 442.41 286.353 442.119 286.92L443.008 287.377C443.233 286.94 443.506 286.638 443.817 286.443C444.128 286.249 444.506 286.143 444.971 286.143V285.143ZM442.122 286.914C441.563 287.969 441.289 289.155 441.289 290.459H442.289C442.289 289.298 442.532 288.277 443.005 287.382L442.122 286.914ZM441.289 290.459V297.081H442.289V290.459H441.289ZM459.835 325.805H459.335V326.305H459.835V325.805ZM459.835 278.763V278.263H459.335V278.763H459.835ZM468.521 278.763H469.021V278.263H468.521V278.763ZM468.521 284.009H468.021L469.015 284.083L468.521 284.009ZM470.112 280.956L469.758 280.603L469.758 280.603L470.112 280.956ZM473.337 278.849L473.151 278.385L473.147 278.386L473.337 278.849ZM477.207 278.075H477.707V277.575H477.207V278.075ZM477.207 287.707L477.027 288.174L477.707 288.435V287.707H477.207ZM476.003 287.449L475.932 287.944L475.951 287.947L475.969 287.948L476.003 287.449ZM470.241 288.911L470.575 289.283L470.575 289.283L470.241 288.911ZM468.521 325.805V326.305H469.021V325.805H468.521ZM460.335 325.805V278.763H459.335V325.805H460.335ZM459.835 279.263H468.521V278.263H459.835V279.263ZM468.021 278.763V284.009H469.021V278.763H468.021ZM469.015 284.083C469.17 283.052 469.646 282.13 470.465 281.31L469.758 280.603C468.801 281.56 468.215 282.674 468.026 283.935L469.015 284.083ZM470.465 281.31C471.303 280.472 472.321 279.805 473.526 279.312L473.147 278.386C471.83 278.925 470.698 279.663 469.758 280.603L470.465 281.31ZM473.522 279.313C474.758 278.819 475.985 278.575 477.207 278.575V277.575C475.848 277.575 474.495 277.847 473.151 278.385L473.522 279.313ZM476.707 278.075V287.707H477.707V278.075H476.707ZM477.386 287.241C476.963 287.078 476.512 286.982 476.036 286.95L475.969 287.948C476.353 287.974 476.705 288.05 477.027 288.174L477.386 287.241ZM476.073 286.954C475.649 286.894 475.224 286.863 474.799 286.863V287.863C475.176 287.863 475.554 287.89 475.932 287.944L476.073 286.954ZM474.799 286.863C472.812 286.863 471.164 287.407 469.906 288.54L470.575 289.283C471.61 288.351 473.001 287.863 474.799 287.863V286.863ZM469.906 288.54C468.638 289.681 468.021 291.23 468.021 293.125H469.021C469.021 291.466 469.55 290.205 470.575 289.283L469.906 288.54ZM468.021 293.125V325.805H469.021V293.125H468.021ZM468.521 325.305H459.835V326.305H468.521V325.305Z" fill="white"/>
</svg>
