<svg id="Capa_1" data-name="Capa 1" xmlns="http://www.w3.org/2000/svg" viewBox="0 0 537.24 862.86"><defs><style>.cls-1{fill:#fff;}</style></defs><title>webo</title><path d="M782.28,666.45c0,8.27-.27,16.55.05,24.8.79,20.51-3.68,40.19-9.38,59.6-11.86,40.36-32.74,75.77-61.66,106.07-40.78,42.72-90.28,69.85-148.66,80.74a166.29,166.29,0,0,1-28.57,2.8c-10.1.14-20.21-.06-30.32.17A170.47,170.47,0,0,1,465.58,937c-46.33-9.41-87.7-28.92-123.81-59.62a266.7,266.7,0,0,1-69.13-89.94,251.94,251.94,0,0,1-24.72-103.59c-.88-40.85,5.46-80.42,17.45-119.27q6.08-19.71,12.2-39.4c1.09-3.5,2.33-7,3.64-10.37,5.13-13.42,14.07-16.92,27.27-10.4,11.92,5.89,23.68,12.1,35.5,18.18,11.42,5.86,23,11.43,34.18,17.73,6.3,3.55,11.66,3.29,18.06.22,14-6.74,28.56-12.49,42.64-19.14,9.14-4.31,17.23-3.8,26.08,1.2,17.95,10.16,36.39,19.46,54.54,29.27a11,11,0,0,0,10.27.58c17.1-6.57,34.41-12.61,51.65-18.85,1.72-.62,3.44-1.24,5.13-1.94,8.61-3.58,16.78-3.08,25.1,1.47,13.68,7.48,27.64,14.43,41.47,21.61,2.85,1.49,5.76,2.87,8.47,4.59,6.75,4.28,13,4.28,20.53.73,19.07-9,38.66-16.77,58-25.17,5.11-2.22,10.17-4.1,15.9-3.45,6,.68,10.47,3.35,12,9.55,1.3,5.34,2.55,10.71,3.47,16.12C775,578.39,780,599.44,781.37,621c.93,15.12.91,30.29,1.32,45.44Z" transform="translate(-247.84 -77.81)"/><path d="M785.06,414.3c-.5,15.15-.95,30.3-1.54,45.44-.13,3.2-.8,6.37-1.13,9.56-.76,7.5-5.31,11.42-12.3,12.87-4,.85-8.14,1.39-12.23,2-28.6,4.25-57.26,8.19-85.79,12.87-8.66,1.43-15-.83-21.1-6.68-15-14.28-30.3-28.13-45.32-42.33-3.24-3.06-6.49-4.54-11-4.1-15.08,1.5-30.19,2.73-45.28,4.08-4.58.4-9.19.56-13.71,1.33-10.85,1.84-19.38-1.44-27.21-9.36-12.59-12.72-26.34-24.3-39-36.93-5.45-5.41-10.86-7.24-18.36-6.05-16.32,2.59-32.83,4-49.09,6.88-8.6,1.51-15-.47-21.29-6.24-16.54-15.26-33.32-30.27-50.13-45.24-7.89-7-16.07-13.71-24.1-20.58-1.74-1.49-3.42-3.07-5.06-4.67-4.16-4.09-4.54-8.94-2.15-13.9a97.86,97.86,0,0,1,6.84-11.93c22.45-33.62,46.66-65.94,74.26-95.53,28.88-31,60-59.46,95.46-83C499.22,107.27,524,94.46,550.89,86c15.4-4.85,31.37-8.06,47.33-8.16,19.6-.12,39.58.67,57.08,11.89a39.74,39.74,0,0,0,6.13,3.13c26.12,10.79,44,30.89,59.42,53.43,25.6,37.31,39.56,79.39,49.21,123.09A651.84,651.84,0,0,1,785.06,414.3Z" transform="translate(-247.84 -77.81)"/><path class="cls-1" d="M336.36,606.62c9.28,4.63,18.66,9.28,28,14,2.87,1.44,5.76,2.86,8.53,4.46,7.82,4.54,15.5,4.3,23.67.52,14.56-6.73,29.46-12.72,44-19.51,5.55-2.59,10-2.58,15.43.47,16,9,32.53,17,48.38,26.22,9.69,5.64,18.68,5.68,28.8,1.69,17.91-7.05,36.17-13.2,54.11-20.19,4.81-1.87,8.51-1.45,12.88.88,18.21,9.7,36.77,18.77,54.8,28.78,9.36,5.2,18.08,5.53,27.48,1,5.36-2.61,10.92-4.78,16.38-7.18a6.16,6.16,0,0,1,5.42-.17c5.94,43.74.72,85.93-20.49,125.17-25.94,48-65.39,80.43-118.23,94C497.41,874.27,436,859,384.49,811c-35.57-33.18-54.57-75.25-58.65-124-2.22-26.51,2-52.1,8.66-77.52C334.71,608.58,335.47,607.91,336.36,606.62Z" transform="translate(-247.84 -77.81)"/><path class="cls-1" d="M707.12,387c0,4.59.3,9.2-.11,13.75-.3,3.36,1.73,8.49-2.86,9.56-5.48,1.28-11.69,3.73-16.87-1.37-2.61-2.57-5.14-5.22-7.64-7.91-11.88-12.76-24.31-25.07-35.4-38.48-8.22-9.93-17.34-11.79-29.22-9-19.19,4.44-38.59,8-57.89,11.88-1.8.36-3.59.78-5.39,1.1a6.12,6.12,0,0,1-6.17-2c-2.06-2.46-4.14-4.9-6.18-7.39q-16.56-20.22-33.11-40.46c-1.16-1.42-2.43-2.75-3.55-4.2-4.43-5.71-10.18-7.26-17.12-5.91-16.18,3.18-32.4,6.2-48.6,9.3-6.3,1.21-12.58,2.51-18.89,3.69-2.77.52-5.33.39-7.65-1.77-14.15-13.16-15.26-10-2-25.09,15.11-17.23,30-34.62,46.11-51,23.55-24,48.93-45.66,77.73-63.08C546,170.23,560.41,163.16,576,159c15.32-4.12,30.62-5.13,45.83.75,11,4.24,19.49,11.75,27.18,20.3,9.89,11,17.35,23.64,23.46,37a314.18,314.18,0,0,1,24.26,80c3.77,23,6.91,46.19,9.86,69.35.87,6.78.14,13.75.14,20.63Z" transform="translate(-247.84 -77.81)"/></svg>