<svg width="152" height="192" viewBox="0 0 152 192" fill="none" xmlns="http://www.w3.org/2000/svg">
<ellipse cx="76" cy="97.5" rx="68" ry="85.5" fill="white"/>
<path d="M75.892 0C31.454 0 0.266998 74.451 0.266998 114.762C0.266998 135.385 8.005 154.701 22.054 169.153C36.245 183.751 55.364 191.79 75.892 191.79C96.421 191.79 115.544 183.751 129.736 169.154C143.787 154.702 151.523 135.385 151.523 114.762C151.522 74.451 120.335 0 75.892 0ZM136.522 114.762C136.522 149.543 109.891 176.789 75.891 176.789C41.897 176.789 15.266 149.543 15.266 114.762C15.266 96.404 22.789 70.529 33.987 50.375C46.478 27.893 61.751 15 75.892 15C90.035 15 105.31 27.893 117.802 50.375C128.999 70.528 136.522 96.403 136.522 114.762Z" fill="black"/>
</svg>
