<svg width="538" height="863" viewBox="0 0 538 863" fill="none" xmlns="http://www.w3.org/2000/svg">
<g clip-path="url(#clip0_1_2)">
<path d="M534.44 588.64C534.44 596.91 534.17 605.19 534.49 613.44C535.28 633.95 530.81 653.63 525.11 673.04C513.25 713.4 492.37 748.81 463.45 779.11C422.67 821.83 373.17 848.96 314.79 859.85C305.365 861.605 295.806 862.542 286.22 862.65C276.12 862.79 266.01 862.59 255.9 862.82C243.084 863.049 230.283 861.831 217.74 859.19C171.41 849.78 130.04 830.27 93.93 799.57C64.7037 774.894 41.1271 744.22 24.8 709.63C9.27262 677.256 0.844327 641.937 0.0800087 606.04C-0.799991 565.19 5.54001 525.62 17.53 486.77C21.5833 473.63 25.65 460.497 29.73 447.37C30.82 443.87 32.06 440.37 33.37 437C38.5 423.58 47.44 420.08 60.64 426.6C72.56 432.49 84.32 438.7 96.14 444.78C107.56 450.64 119.14 456.21 130.32 462.51C136.62 466.06 141.98 465.8 148.38 462.73C162.38 455.99 176.94 450.24 191.02 443.59C200.16 439.28 208.25 439.79 217.1 444.79C235.05 454.95 253.49 464.25 271.64 474.06C273.175 474.986 274.913 475.523 276.703 475.624C278.493 475.725 280.28 475.388 281.91 474.64C299.01 468.07 316.32 462.03 333.56 455.79C335.28 455.17 337 454.55 338.69 453.85C347.3 450.27 355.47 450.77 363.79 455.32C377.47 462.8 391.43 469.75 405.26 476.93C408.11 478.42 411.02 479.8 413.73 481.52C420.48 485.8 426.73 485.8 434.26 482.25C453.33 473.25 472.92 465.48 492.26 457.08C497.37 454.86 502.43 452.98 508.16 453.63C514.16 454.31 518.63 456.98 520.16 463.18C521.46 468.52 522.71 473.89 523.63 479.3C527.16 500.58 532.16 521.63 533.53 543.19C534.46 558.31 534.44 573.48 534.85 588.63L534.44 588.64Z" fill="black" fill-opacity="0.33"/>
<path d="M537.22 336.49C536.72 351.64 536.27 366.79 535.68 381.93C535.55 385.13 534.88 388.3 534.55 391.49C533.79 398.99 529.24 402.91 522.25 404.36C518.25 405.21 514.11 405.75 510.02 406.36C481.42 410.61 452.76 414.55 424.23 419.23C415.57 420.66 409.23 418.4 403.13 412.55C388.13 398.27 372.83 384.42 357.81 370.22C354.57 367.16 351.32 365.68 346.81 366.12C331.73 367.62 316.62 368.85 301.53 370.2C296.95 370.6 292.34 370.76 287.82 371.53C276.97 373.37 268.44 370.09 260.61 362.17C248.02 349.45 234.27 337.87 221.61 325.24C216.16 319.83 210.75 318 203.25 319.19C186.93 321.78 170.42 323.19 154.16 326.07C145.56 327.58 139.16 325.6 132.87 319.83C116.33 304.57 99.55 289.56 82.74 274.59C74.85 267.59 66.67 260.88 58.64 254.01C56.9 252.52 55.22 250.94 53.58 249.34C49.42 245.25 49.04 240.4 51.43 235.44C53.4274 231.308 55.7131 227.321 58.27 223.51C80.72 189.89 104.93 157.57 132.53 127.98C161.41 96.98 192.53 68.52 227.99 44.98C251.38 29.46 276.16 16.65 303.05 8.18999C318.45 3.33999 334.42 0.129989 350.38 0.0299885C369.98 -0.0900115 389.96 0.699995 407.46 11.92C409.409 13.1386 411.46 14.1859 413.59 15.05C439.71 25.84 457.59 45.94 473.01 68.48C498.61 105.79 512.57 147.87 522.22 191.57C532.62 239.164 537.651 287.775 537.22 336.49V336.49Z" fill="black" fill-opacity="0.33"/>
<path d="M88.52 528.81C97.8 533.44 107.18 538.09 116.52 542.81C119.39 544.25 122.28 545.67 125.05 547.27C132.87 551.81 140.55 551.57 148.72 547.79C163.28 541.06 178.18 535.07 192.72 528.28C198.27 525.69 202.72 525.7 208.15 528.75C224.15 537.75 240.68 545.75 256.53 554.97C266.22 560.61 275.21 560.65 285.33 556.66C303.24 549.61 321.5 543.46 339.44 536.47C344.25 534.6 347.95 535.02 352.32 537.35C370.53 547.05 389.09 556.12 407.12 566.13C416.48 571.33 425.2 571.66 434.6 567.13C439.96 564.52 445.52 562.35 450.98 559.95C451.811 559.51 452.731 559.266 453.67 559.237C454.61 559.207 455.543 559.393 456.4 559.78C462.34 603.52 457.12 645.71 435.91 684.95C409.97 732.95 370.52 765.38 317.68 778.95C249.57 796.46 188.16 781.19 136.65 733.19C101.08 700.01 82.08 657.94 78 609.19C75.78 582.68 80 557.09 86.66 531.67C86.87 530.77 87.63 530.1 88.52 528.81Z" fill="white"/>
<path d="M459.28 309.19C459.28 313.78 459.58 318.39 459.17 322.94C458.87 326.3 460.9 331.43 456.31 332.5C450.83 333.78 444.62 336.23 439.44 331.13C436.83 328.56 434.3 325.91 431.8 323.22C419.92 310.46 407.49 298.15 396.4 284.74C388.18 274.81 379.06 272.95 367.18 275.74C347.99 280.18 328.59 283.74 309.29 287.62C307.49 287.98 305.7 288.4 303.9 288.72C302.787 288.998 301.619 288.958 300.528 288.605C299.437 288.251 298.468 287.598 297.73 286.72C295.67 284.26 293.59 281.82 291.55 279.33C280.51 265.85 269.473 252.363 258.44 238.87C257.28 237.45 256.01 236.12 254.89 234.67C250.46 228.96 244.71 227.41 237.77 228.76C221.59 231.94 205.37 234.96 189.17 238.06C182.87 239.27 176.59 240.57 170.28 241.75C167.51 242.27 164.95 242.14 162.63 239.98C148.48 226.82 147.37 229.98 160.63 214.89C175.74 197.66 190.63 180.27 206.74 163.89C230.29 139.89 255.67 118.23 284.47 100.81C298.16 92.42 312.57 85.35 328.16 81.19C343.48 77.07 358.78 76.06 373.99 81.94C384.99 86.18 393.48 93.69 401.17 102.24C411.06 113.24 418.52 125.88 424.63 139.24C436.244 164.707 444.403 191.612 448.89 219.24C452.66 242.24 455.8 265.43 458.75 288.59C459.62 295.37 458.89 302.34 458.89 309.22L459.28 309.19Z" fill="white"/>
</g>
<defs>
<clipPath id="clip0_1_2">
<rect width="537.24" height="862.86" fill="white"/>
</clipPath>
</defs>
</svg>
